<svg width="319" height="60" viewBox="0 0 319 60" fill="none" xmlns="http://www.w3.org/2000/svg">
<path d="M87.4298 33.7621H80.4584C79.7181 36.7769 77.8408 38.7515 74.527 38.7515C72.6498 38.7515 71.1691 38.1609 70.1291 36.9267C68.6926 35.3929 68.4017 33.815 68.4017 26.992C68.4017 20.169 68.7014 18.591 70.1291 17.0572C71.1691 15.823 72.6498 15.2324 74.527 15.2324C77.8408 15.2324 79.7181 17.207 80.4584 20.2219H87.4298C86.24 13.0551 81.2516 9.10583 74.4829 9.10583C70.7284 9.10583 67.5644 10.3929 64.9998 12.9581C63.4662 14.4919 62.532 16.2197 62.1354 18.2472C61.7388 20.2219 61.5449 23.1397 61.5449 26.992C61.5449 30.8442 61.7388 33.7621 62.1354 35.7367C62.532 37.7113 63.4662 39.492 64.9998 41.0258C67.5733 43.5999 70.7284 44.8781 74.4829 44.8781C81.1987 44.8781 86.24 40.92 87.4298 33.7621Z" stroke="#495057" stroke-width="0.24" stroke-linejoin="round"/>
<path d="M119.184 44.5872V9.39673H112.31V23.7832H100.403V9.39673H93.5375V44.5872H100.403V29.8657H112.31V44.5872H119.184Z" stroke="#495057" stroke-width="0.24" stroke-linejoin="round"/>
<path d="M143.668 32.5808H134.925L139.376 19.7811L143.677 32.5808H143.668ZM154.729 44.5872L141.888 9.39673H136.503L123.706 44.5872H130.871L132.995 38.3636H145.492L147.572 44.5872H154.737H154.729Z" fill="#495057"/>
<path d="M178.921 15.5321V9.39673H153.671V15.5321H162.863V44.5872H169.729V15.5321H178.921Z" stroke="#495057" stroke-width="0.24" stroke-linejoin="round"/>
<path d="M203.158 19.4813C203.158 21.9055 201.528 23.5364 198.61 23.5364H191.895V15.4263H198.61C201.528 15.4263 203.158 17.0572 203.158 19.4813ZM203.652 34.0089C203.652 36.3802 202.171 38.3548 199.06 38.3548H191.895V29.707H199.06C202.171 29.707 203.652 31.6376 203.652 34.0089ZM210.517 34.3527C210.517 29.6541 207.803 27.4327 205.679 26.4454C207.459 25.6079 210.024 23.0868 210.024 19.1816C210.024 13.152 206.022 9.29974 199.157 9.29974H185.029V44.4902H199.756C206.031 44.4902 210.526 40.9288 210.526 34.3615L210.517 34.3527Z" stroke="#495057" stroke-width="0.24" stroke-linejoin="round"/>
<path d="M223.261 9.29974H216.396V44.4902H223.261V9.29974Z" fill="#495057"/>
<path d="M255.025 15.4263V9.29974H229.783V15.4263H238.967V44.4814H245.841V15.4263H255.025Z" stroke="#495057" stroke-width="0.24" stroke-linejoin="round"/>
<path d="M283.148 34.1058C283.148 30.994 282.311 28.42 280.434 26.6393C278.953 25.2553 276.926 24.365 273.718 23.9242L269.567 23.3336C268.13 23.1396 266.993 22.5931 266.306 21.9496C265.566 21.262 265.266 20.3188 265.266 19.4284C265.266 17.0042 267.046 14.9767 270.704 14.9767C273.022 14.9767 275.692 15.2765 277.922 17.4009L282.267 13.0991C279.253 10.1812 275.745 9 270.906 9C263.301 9 258.656 13.3988 258.656 19.6753C258.656 22.6372 259.493 24.9115 261.177 26.5952C262.754 28.1291 264.984 29.0635 267.998 29.5131L272.246 30.1037C273.877 30.3505 274.67 30.6943 275.357 31.3378C276.098 32.0254 276.441 33.0656 276.441 34.2997C276.441 37.1206 274.264 38.6457 270.219 38.6457C266.958 38.6457 263.944 37.9052 261.723 35.6837L257.272 40.1354C260.727 43.6439 264.781 44.7811 270.122 44.7811C277.481 44.7811 283.166 40.9288 283.166 34.1058H283.148Z" stroke="#495057" stroke-width="0.24" stroke-linejoin="round"/>
<path d="M52.9343 42.5068V11.5035H7.74817V42.4362H35.6777L44.5175 50.1408L46.2185 48.8273L36.6119 40.4352H9.99558V13.5046H50.6957V42.5068H52.9343Z" fill="#495057"/>
<path d="M52.9343 42.5068V11.5035H7.74817V42.4362H35.6777L44.5175 50.1408L46.2185 48.8273L36.6119 40.4352H9.99558V13.5046H50.6957V42.5068H52.9343Z" stroke="#495057" stroke-width="5.07" stroke-miterlimit="10"/>
<path d="M87.4298 33.7621H80.4584C79.7181 36.7769 77.8408 38.7515 74.527 38.7515C72.6498 38.7515 71.1691 38.1609 70.1291 36.9267C68.6926 35.3929 68.4017 33.815 68.4017 26.992C68.4017 20.169 68.7014 18.591 70.1291 17.0572C71.1691 15.8231 72.6498 15.2324 74.527 15.2324C77.8408 15.2324 79.7181 17.207 80.4584 20.2219H87.4298C86.24 13.0551 81.2516 9.10583 74.4829 9.10583C70.7284 9.10583 67.5644 10.3929 64.9998 12.9581C63.4662 14.4919 62.532 16.2197 62.1354 18.2472C61.7388 20.2219 61.5449 23.1397 61.5449 26.992C61.5449 30.8442 61.7388 33.7621 62.1354 35.7367C62.532 37.7113 63.4662 39.492 64.9998 41.0258C67.5733 43.5999 70.7284 44.8781 74.4829 44.8781C81.1987 44.8781 86.24 40.92 87.4298 33.7621Z" fill="#495057"/>
<path d="M119.184 44.5872V9.39673H112.31V23.7832H100.403V9.39673H93.5375V44.5872H100.403V29.8657H112.31V44.5872H119.184Z" fill="#495057"/>
<path d="M143.668 32.5808H134.925L139.376 19.7811L143.677 32.5808H143.668ZM154.729 44.5872L141.888 9.39673H136.503L123.706 44.5872H130.871L132.995 38.3636H145.492L147.572 44.5872H154.737H154.729Z" stroke="#495057" stroke-width="0.24" stroke-linejoin="round"/>
<path d="M178.921 15.5321V9.39673H153.671V15.5321H162.863V44.5872H169.729V15.5321H178.921Z" fill="#495057"/>
<path d="M203.158 19.4813C203.158 21.9055 201.528 23.5364 198.61 23.5364H191.895V15.4263H198.61C201.528 15.4263 203.158 17.0572 203.158 19.4813ZM203.652 34.0089C203.652 36.3802 202.171 38.3548 199.06 38.3548H191.895V29.707H199.06C202.171 29.707 203.652 31.6376 203.652 34.0089ZM210.517 34.3527C210.517 29.6541 207.803 27.4327 205.679 26.4454C207.459 25.6079 210.024 23.0868 210.024 19.1816C210.024 13.152 206.022 9.29974 199.157 9.29974H185.029V44.4902H199.756C206.031 44.4902 210.526 40.9288 210.526 34.3615L210.517 34.3527Z" fill="#495057"/>
<path d="M223.261 9.29974H216.396V44.4902H223.261V9.29974Z" stroke="#495057" stroke-width="0.24" stroke-linejoin="round"/>
<path d="M255.025 15.4263V9.29974H229.783V15.4263H238.967V44.4814H245.841V15.4263H255.025Z" fill="#495057"/>
<path d="M283.148 34.1058C283.148 30.994 282.311 28.42 280.434 26.6393C278.953 25.2553 276.926 24.365 273.718 23.9242L269.567 23.3336C268.13 23.1396 266.993 22.5931 266.306 21.9496C265.566 21.262 265.266 20.3188 265.266 19.4284C265.266 17.0042 267.046 14.9767 270.704 14.9767C273.022 14.9767 275.692 15.2765 277.922 17.4009L282.267 13.0991C279.253 10.1812 275.745 9 270.906 9C263.301 9 258.656 13.3988 258.656 19.6753C258.656 22.6372 259.493 24.9115 261.177 26.5952C262.754 28.1291 264.984 29.0635 267.998 29.5131L272.246 30.1037C273.877 30.3505 274.67 30.6943 275.357 31.3378C276.098 32.0254 276.441 33.0656 276.441 34.2997C276.441 37.1206 274.264 38.6457 270.219 38.6457C266.958 38.6457 263.944 37.9052 261.723 35.6837L257.272 40.1354C260.727 43.6439 264.781 44.7811 270.122 44.7811C277.481 44.7811 283.166 40.9288 283.166 34.1058H283.148Z" fill="#495057"/>
<path d="M288.921 39.774H284.329V44.3315H288.921V39.774Z" fill="#495057"/>
<path d="M301.392 38.4165C301.392 39.4038 301.233 40.0473 300.81 40.4528C300.105 41.1316 299.391 41.2197 298.281 41.2197C296.712 41.2197 295.972 40.4792 295.972 39.3685C295.972 38.2578 296.774 37.5526 298.219 37.5526H301.392V38.4165ZM305.402 44.3315V33.762C305.402 30.0067 303.058 28.0938 298.563 28.0938C295.884 28.0938 294.341 28.5875 292.773 30.3153L295.328 32.81C296.157 31.8579 296.871 31.4877 298.404 31.4877C300.528 31.4877 301.392 32.2546 301.392 34.0177V34.8198H297.602C293.874 34.8198 292.12 36.9179 292.12 39.4743C292.12 40.8935 292.579 42.1894 293.442 43.0797C294.394 44.0318 295.725 44.499 297.541 44.499C299.356 44.499 300.405 44.0406 301.48 42.9563V44.3403H305.393L305.402 44.3315Z" fill="#495057"/>
<path d="M309.65 25.5375H313.748V22.2758H309.65V25.5375ZM309.712 44.3316H313.713V28.279H309.712V44.3316Z" fill="#495057"/>
</svg>
