<svg width="244" height="60" viewBox="0 0 244 60" fill="none" xmlns="http://www.w3.org/2000/svg">
<g clip-path="url(#clip0_11_357)">
<path d="M218.453 50.6296C211.384 50.6296 204.584 47.6481 199.804 42.4472L200.724 41.6066C205.28 46.5496 211.743 49.3854 218.464 49.3854C231.749 49.3854 242.554 38.5914 242.554 25.3204C242.554 12.0493 231.738 1.24416 218.453 1.24416C205.167 1.24416 194.362 12.0381 194.362 25.3092H193.116C193.116 11.3544 204.483 0 218.453 0C232.422 0 243.789 11.3544 243.789 25.3092C243.789 39.264 232.422 50.6183 218.453 50.6183V50.6296Z" fill="#495057"/>
<path d="M200.948 29.2322L197.649 37.4481C196.147 34.8847 195.135 32.0645 194.665 29.1313H193.397C193.935 32.5051 195.237 35.9798 197.077 38.8716L195.001 44.0388H196.359L202.317 29.2322H200.948ZM5.02482 25.0514V26.4188C4.55356 26.1946 4.14961 26.0938 3.813 26.0938C3.56614 26.0938 3.35295 26.1498 3.18464 26.2619C3.01633 26.374 2.91534 26.4973 2.87046 26.643C2.82558 26.7887 2.80314 27.1698 2.80314 27.7863V29.2546H4.89018V30.4651H2.80314V40.1046H1.51277V30.4651H0.199951V29.2546H1.51277V27.5621C1.51277 26.7887 1.58009 26.2283 1.71474 25.892C1.84938 25.5557 2.0738 25.2979 2.38797 25.085C2.70215 24.8832 3.08365 24.7823 3.53248 24.7823C3.94764 24.7823 4.45257 24.872 5.02482 25.0626V25.0514ZM5.41755 25.0514H6.70792V40.0822H5.41755V25.0514ZM16.5709 36.4842L17.6593 37.1007C17.3002 37.8629 16.8963 38.4681 16.425 38.9389C15.9537 39.4097 15.4376 39.7571 14.8541 40.0037C14.2706 40.2503 13.6086 40.3624 12.8793 40.3624C11.2523 40.3624 9.97312 39.7795 9.05303 38.6251C8.14826 37.5143 7.66013 36.1228 7.67289 34.6908C7.67289 33.3121 8.06562 32.0904 8.83984 31.0144C9.82726 29.6469 11.1513 28.9632 12.8007 28.9632C14.4502 28.9632 15.864 29.6693 16.885 31.0704C17.6032 32.0568 17.9734 33.3009 17.9847 34.7805H8.99693C9.01937 36.0359 9.38965 37.0783 10.1078 37.8741C10.8259 38.6811 11.7123 39.0846 12.7671 39.0846C13.272 39.0846 13.7657 38.9837 14.2482 38.7932C14.7307 38.6026 15.1346 38.3448 15.4712 38.031C15.8079 37.7172 16.1781 37.2016 16.5596 36.4954L16.5709 36.4842ZM16.5709 33.5587C16.4025 32.819 16.1445 32.2249 15.8191 31.7766C15.4937 31.3282 15.0561 30.9695 14.5175 30.7005C13.9789 30.4315 13.4066 30.297 12.8119 30.297C11.8357 30.297 10.9942 30.6445 10.2873 31.3282C9.77115 31.8214 9.37843 32.5724 9.12036 33.5699H16.5709V33.5587Z" fill="#495057"/>
<path d="M18.0407 29.2322H19.5779L22.2372 33.2L24.8628 29.2322H26.4113L23.0114 34.3545L26.8377 40.0709H25.2668L22.226 35.5202L19.2076 40.0709H17.6704L21.4518 34.3545L18.0295 29.221L18.0407 29.2322ZM26.4786 29.2322H27.8363L31.2698 37.5826L34.6023 29.2322H35.9713L30.0131 44.0388H28.6554L30.5741 39.2527L26.4786 29.2322ZM41.0879 25.0513V26.4188C40.6166 26.1946 40.2127 26.0937 39.876 26.0937C39.6292 26.0937 39.416 26.1498 39.2477 26.2619C39.0794 26.374 38.9784 26.4972 38.9335 26.643C38.8886 26.7887 38.8662 27.1698 38.8662 27.7862V29.2546H40.9532V30.4651H38.8662V40.1046H37.5758V30.4651H36.263V29.2546H37.5758V27.5621C37.5758 26.7887 37.6431 26.2282 37.7778 25.892C37.9124 25.5557 38.1368 25.2979 38.451 25.085C38.7652 24.8832 39.1467 24.7823 39.5955 24.7823C40.0107 24.7823 40.5156 24.872 41.0879 25.0625V25.0513ZM42.0192 29.2322H43.3096V40.0822H42.0192V29.2322ZM42.67 25.3876C42.8944 25.3876 43.0739 25.4661 43.231 25.623C43.3881 25.7799 43.4667 25.9704 43.4667 26.1946C43.4667 26.4188 43.3881 26.5981 43.231 26.755C43.0739 26.912 42.8832 26.9904 42.67 26.9904C42.4568 26.9904 42.266 26.912 42.1089 26.755C41.9519 26.5981 41.8733 26.4076 41.8733 26.1946C41.8733 25.9816 41.9519 25.7799 42.1089 25.623C42.266 25.4661 42.4568 25.3876 42.67 25.3876ZM46.4401 25.2083H47.7305V29.2322H49.7726V30.4427H47.7305V40.0822H46.4401V30.4427H44.6897V29.2322H46.4401V25.2083ZM131.38 29.2322V40.0822H130.112V38.2215C129.574 38.9277 128.968 39.4657 128.295 39.8244C127.621 40.183 126.892 40.3624 126.095 40.3624C124.682 40.3624 123.47 39.8019 122.471 38.6923C121.472 37.5826 120.968 36.2264 120.968 34.6347C120.968 33.0431 121.472 31.7429 122.482 30.6332C123.492 29.5236 124.704 28.9632 126.129 28.9632C126.948 28.9632 127.689 29.1537 128.351 29.5348C129.013 29.9159 129.596 30.4763 130.101 31.2385V29.2434H131.369L131.38 29.2322ZM126.241 30.297C125.523 30.297 124.861 30.4875 124.255 30.8686C123.649 31.2497 123.167 31.7877 122.808 32.4715C122.454 33.1457 122.268 33.8957 122.268 34.6572C122.268 35.4186 122.454 36.1686 122.808 36.8428C123.167 37.5378 123.649 38.087 124.266 38.4681C124.872 38.8604 125.523 39.051 126.219 39.051C126.914 39.051 127.588 38.8604 128.216 38.4681C128.844 38.087 129.327 37.5602 129.675 36.9101C130.023 36.26 130.18 35.509 130.18 34.6908C130.18 33.4354 129.798 32.393 129.035 31.5411C128.272 30.7005 127.341 30.2746 126.23 30.2746L126.241 30.297ZM142.758 31.4851L141.737 32.1688C140.862 30.9023 139.65 30.2634 138.135 30.2634C136.923 30.2634 135.913 30.6893 135.106 31.5411C134.298 32.393 133.905 33.4242 133.905 34.6347C133.905 35.4193 134.084 36.1703 134.455 36.8653C134.825 37.5602 135.33 38.0982 135.981 38.4905C136.62 38.8716 137.35 39.0734 138.146 39.0734C139.616 39.0734 140.817 38.4345 141.737 37.1679L142.758 37.8965C142.276 38.6811 141.636 39.2863 140.839 39.7123C140.043 40.1382 139.123 40.3624 138.09 40.3624C136.508 40.3624 135.207 39.8131 134.163 38.7259C133.12 37.6387 132.603 36.3048 132.603 34.7468C132.603 33.6932 132.85 32.7181 133.333 31.8214C133.815 30.9247 134.488 30.2185 135.341 29.7141C136.194 29.2097 137.148 28.9519 138.191 28.9519C138.853 28.9519 139.493 29.064 140.11 29.277C140.727 29.5012 141.243 29.7814 141.67 30.1289C142.096 30.4763 142.466 30.9247 142.758 31.4739V31.4851ZM153.979 29.2322V40.0822H152.711V38.2215C152.172 38.9277 151.566 39.4657 150.893 39.8244C150.22 40.183 149.49 40.3624 148.694 40.3624C147.28 40.3624 146.068 39.8019 145.069 38.6923C144.071 37.5826 143.566 36.2264 143.566 34.6347C143.566 33.0431 144.071 31.7429 145.081 30.6332C146.091 29.5236 147.302 28.9632 148.727 28.9632C149.547 28.9632 150.287 29.1537 150.949 29.5348C151.611 29.9159 152.195 30.4763 152.7 31.2385V29.2434H153.967L153.979 29.2322ZM148.84 30.297C148.122 30.297 147.459 30.4875 146.854 30.8686C146.248 31.2497 145.765 31.7877 145.406 32.4715C145.052 33.1457 144.867 33.8957 144.867 34.6572C144.867 35.4186 145.052 36.1686 145.406 36.8428C145.765 37.5378 146.248 38.087 146.865 38.4681C147.471 38.8604 148.121 39.051 148.817 39.051C149.513 39.051 150.186 38.8604 150.814 38.4681C151.443 38.087 151.925 37.5602 152.273 36.9101C152.621 36.26 152.778 35.509 152.778 34.6908C152.778 33.4354 152.397 32.393 151.634 31.5411C150.871 30.7005 149.939 30.2746 148.828 30.2746L148.84 30.297ZM165.637 25.0513V40.0822H164.369V38.2215C163.83 38.9277 163.224 39.4657 162.551 39.8244C161.878 40.183 161.149 40.3624 160.352 40.3624C158.938 40.3624 157.726 39.8019 156.728 38.6923C155.729 37.5826 155.224 36.2264 155.224 34.6347C155.224 33.0431 155.729 31.7429 156.739 30.6332C157.749 29.5236 158.961 28.9632 160.386 28.9632C161.205 28.9632 161.945 29.1537 162.607 29.5348C163.269 29.9159 163.853 30.4763 164.358 31.2385V25.0625H165.626L165.637 25.0513ZM160.498 30.297C159.798 30.2912 159.111 30.4899 158.523 30.8686C157.917 31.2497 157.435 31.7877 157.076 32.4715C156.717 33.1552 156.537 33.895 156.537 34.6572C156.537 35.4193 156.717 36.1479 157.076 36.8428C157.435 37.5378 157.917 38.087 158.534 38.4681C159.14 38.8604 159.791 39.051 160.487 39.051C161.182 39.051 161.856 38.8604 162.484 38.4681C163.112 38.087 163.595 37.5602 163.943 36.9101C164.279 36.2488 164.448 35.509 164.448 34.6908C164.448 33.4354 164.066 32.393 163.303 31.5411C162.54 30.7005 161.609 30.2746 160.498 30.2746V30.297ZM175.758 36.4842L176.846 37.1006C176.487 37.8628 176.083 38.4681 175.612 38.9389C175.152 39.4096 174.625 39.7571 174.041 40.0037C173.458 40.2503 172.796 40.3624 172.066 40.3624C170.439 40.3624 169.16 39.7795 168.24 38.625C167.335 37.5142 166.847 36.1228 166.86 34.6908C166.86 33.3121 167.253 32.0904 168.027 31.0143C169.014 29.6469 170.338 28.9632 171.988 28.9632C173.637 28.9632 175.051 29.6693 176.072 31.0704C176.79 32.0567 177.16 33.3009 177.172 34.7805H168.184C168.206 36.0358 168.577 37.0782 169.295 37.874C170.013 38.6811 170.899 39.0846 171.954 39.0846C172.459 39.0846 172.953 38.9837 173.435 38.7932C173.918 38.6026 174.322 38.3448 174.658 38.031C174.995 37.7171 175.365 37.2015 175.747 36.4954L175.758 36.4842ZM175.758 33.5587C175.59 32.8189 175.332 32.2249 175.006 31.7765C174.681 31.3282 174.243 30.9695 173.705 30.7005C173.166 30.4315 172.594 30.297 171.999 30.297C171.023 30.297 170.181 30.6445 169.474 31.3282C168.958 31.8214 168.565 32.5723 168.307 33.5699H175.747L175.758 33.5587ZM178.35 29.2322H179.64V31.104C180.089 30.4091 180.549 29.9047 181.02 29.5908C181.671 29.1649 182.356 28.9519 183.074 28.9519C183.556 28.9519 184.016 29.0528 184.454 29.2658C184.892 29.4675 185.239 29.7478 185.52 30.084C185.8 30.4315 186.036 30.9135 186.238 31.5524C186.664 30.7005 187.203 30.0504 187.843 29.6133C188.482 29.1761 189.178 28.9519 189.907 28.9519C190.592 28.9519 191.209 29.1425 191.736 29.5236C192.263 29.9047 192.656 30.4315 192.914 31.104C193.172 31.7765 193.296 32.7965 193.296 34.1528V40.0709H191.983V34.1528C191.983 32.9871 191.904 32.1912 191.759 31.7541C191.613 31.317 191.343 30.9695 190.973 30.7005C190.603 30.4315 190.165 30.297 189.649 30.297C189.032 30.297 188.46 30.4987 187.944 30.891C187.427 31.2946 187.046 31.8214 186.81 32.4827C186.575 33.144 186.451 34.2536 186.451 35.8117V40.0597H185.161V34.5114C185.161 33.2 185.082 32.3145 184.936 31.8438C184.791 31.373 184.521 31.0031 184.151 30.7229C183.781 30.4427 183.332 30.297 182.816 30.297C182.221 30.297 181.671 30.4875 181.155 30.8798C180.639 31.2721 180.257 31.7877 180.011 32.4491C179.764 33.1104 179.64 34.1191 179.64 35.4642V40.0597H178.35V29.2097V29.2322ZM56.7182 50.6519L56.1123 51.2796C55.6074 50.7976 55.1137 50.551 54.6424 50.551C54.3394 50.551 54.0814 50.6519 53.857 50.8537C53.6325 51.0554 53.5316 51.2908 53.5316 51.5598C53.5316 51.7952 53.6213 52.0194 53.8009 52.2323C53.9804 52.4565 54.3619 52.7031 54.9341 53.0057C55.6298 53.3644 56.1123 53.7119 56.3592 54.0482C56.606 54.3844 56.7294 54.7655 56.7294 55.1914C56.7294 55.7855 56.5162 56.3011 56.1011 56.7158C55.6747 57.1305 55.1586 57.3435 54.519 57.3435C54.0926 57.3435 53.6999 57.2538 53.3184 57.0633C52.9369 56.8839 52.6227 56.6261 52.3646 56.3011L52.9593 55.6286C53.4418 56.1666 53.9467 56.4356 54.4853 56.4356C54.8668 56.4356 55.181 56.3123 55.4503 56.0769C55.6735 55.8848 55.8126 55.613 55.8378 55.3197C55.8629 55.0265 55.7722 54.735 55.5849 54.5077C55.4054 54.306 55.0127 54.0482 54.4068 53.7343C53.7448 53.398 53.2959 53.0618 53.0603 52.7255C52.8247 52.3893 52.7012 52.0194 52.7012 51.5935C52.7012 51.0442 52.892 50.5735 53.2735 50.2148C53.655 49.8449 54.1263 49.6656 54.7097 49.6656C55.383 49.6656 56.0562 49.9906 56.7407 50.6519H56.7182ZM58.4013 49.8561H59.3438V51.2012C59.7141 50.6968 60.1405 50.3157 60.623 50.0579C61.1055 49.8001 61.6441 49.6768 62.2388 49.6768C63.2711 49.6768 64.1575 50.0467 64.8981 50.7976C65.6386 51.5486 66.0089 52.4453 66.0089 53.4877C66.0089 54.5301 65.6386 55.4717 64.9093 56.2226C64.1799 56.9736 63.2935 57.3435 62.2612 57.3435C61.6777 57.3435 61.1504 57.2202 60.6567 56.9848C60.1742 56.7382 59.7253 56.3796 59.3326 55.9088V59.8318H58.3901V49.8673L58.4013 49.8561ZM62.149 50.5735C61.3411 50.5735 60.6567 50.8537 60.0956 51.4253C59.5346 51.997 59.2653 52.6919 59.2653 53.5438C59.2653 54.093 59.3887 54.5974 59.6356 55.0345C59.8824 55.4716 60.2415 55.8303 60.7015 56.0881C61.1616 56.3459 61.6553 56.4804 62.1602 56.4804C62.6652 56.4804 63.1364 56.3459 63.5852 56.0881C64.0341 55.8303 64.3819 55.4604 64.6512 54.9897C64.9093 54.5189 65.0439 54.0257 65.0439 53.5213C65.0439 53.017 64.9093 52.5126 64.6512 52.053C64.4054 51.6042 64.0405 51.2319 63.5965 50.977C63.1589 50.7192 62.6764 50.5959 62.149 50.5959V50.5735ZM71.2153 49.6656C72.3373 49.6656 73.2687 50.0691 74.0092 50.8873C74.6824 51.6271 75.0191 52.5014 75.0191 53.5213C75.0191 54.5413 74.66 55.4268 73.9531 56.189C73.2462 56.9512 72.3261 57.3323 71.2153 57.3323C70.1044 57.3323 69.1843 56.9512 68.4662 56.189C67.7593 55.4268 67.4003 54.5413 67.4003 53.5213C67.4003 52.5014 67.7369 51.6383 68.4101 50.8985C69.1507 50.0803 70.082 49.6768 71.2153 49.6768V49.6656ZM71.2041 50.5847C70.4186 50.5847 69.7566 50.8761 69.1956 51.4477C68.6345 52.0194 68.354 52.7255 68.354 53.5438C68.354 54.0706 68.4774 54.5638 68.7355 55.0233C68.9936 55.4829 69.3414 55.8303 69.7678 56.0769C70.2054 56.3235 70.6767 56.4468 71.2041 56.4468C71.7314 56.4468 72.2027 56.3235 72.6403 56.0769C73.0779 55.8303 73.4257 55.4717 73.6726 55.0233C73.9307 54.5638 74.0541 54.0706 74.0541 53.5438C74.0541 52.7255 73.7736 52.0306 73.2125 51.4477C72.6515 50.8761 71.9783 50.5847 71.2041 50.5847ZM76.3992 49.8561H77.3642V50.9209C77.6447 50.5062 77.9477 50.1924 78.2731 49.9794C78.5985 49.7664 78.9239 49.6656 79.2605 49.6656C79.5185 49.6656 79.7991 49.744 80.0908 49.9122L79.5971 50.708C79.3951 50.6183 79.238 50.5847 79.1034 50.5847C78.7892 50.5847 78.4862 50.708 78.1945 50.9658C77.9028 51.2236 77.6784 51.6159 77.5325 52.1651C77.4203 52.5798 77.353 53.4205 77.353 54.687V57.153H76.388V49.8561H76.3992ZM81.7066 47.1436H82.6491V49.8561H84.1414V50.6631H82.6491V57.1417H81.7066V50.6631H80.4274V49.8561H81.7066V47.1436ZM92.815 49.8561V57.153H91.8837V55.8976C91.491 56.3796 91.0534 56.7382 90.5596 56.9736C90.0659 57.209 89.5386 57.3323 88.9551 57.3323C87.9228 57.3323 87.0364 56.9624 86.307 56.2114C85.5777 55.4604 85.2074 54.5525 85.2074 53.4765C85.2074 52.4005 85.5777 51.5262 86.3183 50.7864C87.0588 50.0467 87.9452 49.6656 88.9775 49.6656C89.5722 49.6656 90.122 49.7889 90.6045 50.0467C91.087 50.3045 91.5134 50.6856 91.8837 51.1899V49.8449H92.815V49.8561ZM89.0673 50.5735C88.5399 50.5735 88.0574 50.6968 87.6199 50.9546C87.1822 51.2124 86.8232 51.571 86.5651 52.0306C86.307 52.4901 86.1724 52.9833 86.1724 53.4989C86.1724 54.0145 86.307 54.5077 86.5651 54.9673C86.8109 55.4163 87.1727 55.7914 87.6127 56.0535C88.0527 56.3157 88.555 56.4553 89.0673 56.458C89.5835 56.458 90.0659 56.3235 90.526 56.0657C90.986 55.8079 91.3451 55.4604 91.5919 55.0121C91.8388 54.575 91.9622 54.0706 91.9622 53.5213C91.9622 52.6807 91.6817 51.9745 91.1319 51.4029C90.5821 50.8313 89.8864 50.551 89.0785 50.551L89.0673 50.5735ZM94.8123 49.8561H95.7548V53.2635C95.7548 54.093 95.7997 54.6646 95.8895 54.9785C96.0241 55.4268 96.2822 55.7743 96.6637 56.0321C97.0452 56.2899 97.494 56.4244 98.0214 56.4244C98.5487 56.4244 98.9864 56.3011 99.3566 56.0433C99.7269 55.7967 99.9738 55.4604 100.108 55.0457C100.198 54.7655 100.254 54.1714 100.254 53.2523V49.8449H101.219V53.4205C101.219 54.4292 101.107 55.1802 100.871 55.6958C100.636 56.2114 100.288 56.6037 99.8167 56.8952C99.3454 57.1866 98.7507 57.3323 98.0438 57.3323C97.3369 57.3323 96.7422 57.1866 96.2597 56.8952C95.7885 56.6037 95.4294 56.2002 95.1938 55.6846C94.9581 55.169 94.8459 54.3956 94.8459 53.3532V49.8449L94.8123 49.8561ZM106.953 50.6519L106.347 51.2796C105.842 50.7976 105.348 50.551 104.877 50.551C104.574 50.551 104.316 50.6519 104.092 50.8537C103.867 51.0554 103.766 51.2908 103.766 51.5598C103.766 51.7952 103.856 52.0194 104.036 52.2323C104.215 52.4565 104.597 52.7031 105.169 53.0057C105.865 53.3644 106.347 53.7119 106.594 54.0482C106.841 54.3844 106.964 54.7655 106.964 55.1914C106.964 55.7855 106.751 56.3011 106.336 56.7158C105.909 57.1305 105.393 57.3435 104.754 57.3435C104.327 57.3435 103.935 57.2538 103.553 57.0633C103.172 56.8839 102.857 56.6261 102.599 56.3011L103.194 55.6286C103.677 56.1666 104.182 56.4356 104.72 56.4356C105.102 56.4356 105.416 56.3123 105.685 56.0769C105.908 55.8848 106.047 55.613 106.073 55.3197C106.098 55.0265 106.007 54.735 105.82 54.5077C105.64 54.306 105.247 54.0482 104.642 53.7343C103.98 53.398 103.531 53.0618 103.295 52.7255C103.059 52.3893 102.936 52.0194 102.936 51.5935C102.936 51.0442 103.127 50.5735 103.508 50.2148C103.89 49.8449 104.361 49.6656 104.944 49.6656C105.618 49.6656 106.291 49.9906 106.975 50.6519H106.953ZM108.681 57.153V47.0427H109.624V51.1115C110.016 50.6295 110.454 50.2708 110.948 50.0242C111.43 49.7889 111.969 49.6656 112.552 49.6656C113.584 49.6656 114.471 50.0354 115.2 50.7864C115.929 51.5374 116.3 52.4453 116.3 53.5101C116.3 54.575 115.93 55.4604 115.189 56.2114C114.448 56.9624 113.562 57.3323 112.53 57.3323C111.935 57.3323 111.396 57.209 110.914 56.9512C110.431 56.6934 110.005 56.3123 109.635 55.8079V57.153H108.692H108.681ZM112.44 56.4356C112.967 56.4356 113.439 56.3011 113.887 56.0545C114.325 55.7967 114.684 55.438 114.942 54.9785C115.2 54.5077 115.335 54.0257 115.335 53.4989C115.335 52.9721 115.2 52.4901 114.942 52.0194C114.697 51.572 114.337 51.198 113.899 50.936C113.461 50.6739 112.962 50.5333 112.451 50.5286C111.946 50.5286 111.452 50.6631 110.992 50.9209C110.532 51.1787 110.173 51.5374 109.926 51.9745C109.68 52.4229 109.556 52.9161 109.556 53.4653C109.556 54.306 109.837 55.0121 110.387 55.5837C110.936 56.1554 111.621 56.4356 112.44 56.4356ZM118.319 46.8522C118.533 46.8522 118.712 46.9306 118.869 47.0764C119.026 47.2221 119.094 47.4126 119.094 47.6256C119.094 47.8386 119.015 48.0179 118.869 48.1636C118.723 48.3205 118.533 48.3878 118.319 48.3878C118.106 48.3878 117.927 48.3093 117.781 48.1636C117.624 48.0067 117.556 47.8273 117.556 47.6256C117.556 47.4238 117.635 47.2221 117.781 47.0764C117.927 46.9194 118.118 46.8522 118.319 46.8522ZM117.848 49.8561H118.791V57.153H117.848V49.8561ZM120.597 47.0427H121.54V57.153H120.597V47.0427ZM130.786 47.0427V57.153H129.854V55.8976C129.462 56.3796 129.024 56.7382 128.53 56.9736C128.037 57.209 127.509 57.3323 126.926 57.3323C125.893 57.3323 125.007 56.9624 124.278 56.2114C123.548 55.4604 123.178 54.5525 123.178 53.4765C123.178 52.4005 123.548 51.5262 124.289 50.7864C125.029 50.0354 125.916 49.6656 126.948 49.6656C127.543 49.6656 128.093 49.7889 128.575 50.0467C129.058 50.3045 129.484 50.6856 129.854 51.1899V47.0315H130.786V47.0427ZM127.027 50.5735C126.499 50.5735 126.017 50.6968 125.579 50.9546C125.142 51.2124 124.783 51.571 124.525 52.0306C124.266 52.4901 124.132 52.9833 124.132 53.4989C124.132 54.0145 124.266 54.5077 124.525 54.9673C124.794 55.438 125.142 55.7967 125.59 56.0657C126.039 56.3235 126.511 56.458 127.027 56.458C127.543 56.458 128.025 56.3235 128.485 56.0657C128.945 55.8079 129.304 55.4604 129.551 55.0121C129.798 54.575 129.922 54.0706 129.922 53.5213C129.922 52.6807 129.641 51.9745 129.091 51.4029C128.53 50.8313 127.846 50.551 127.038 50.551L127.027 50.5735ZM132.783 49.8561H133.725V53.2635C133.725 54.093 133.77 54.6646 133.86 54.9785C133.995 55.4268 134.253 55.7743 134.634 56.0321C135.016 56.2899 135.465 56.4244 135.992 56.4244C136.519 56.4244 136.957 56.3011 137.327 56.0433C137.698 55.7967 137.944 55.4604 138.079 55.0457C138.169 54.7655 138.225 54.1714 138.225 53.2523V49.8449H139.19V53.4205C139.19 54.4292 139.078 55.1802 138.842 55.6958C138.606 56.2114 138.259 56.6037 137.776 56.8952C137.305 57.1866 136.71 57.3323 136.003 57.3323C135.296 57.3323 134.702 57.1866 134.219 56.8952C133.748 56.6037 133.389 56.2002 133.153 55.6846C132.918 55.169 132.805 54.3956 132.805 53.3532V49.8449L132.783 49.8561ZM141.266 49.8561H142.208V51.1675C142.579 50.6631 143.005 50.2933 143.454 50.0467C143.914 49.8001 144.407 49.6768 144.946 49.6768C145.485 49.6768 145.978 49.8113 146.394 50.0915C146.82 50.3717 147.123 50.7416 147.325 51.2124C147.527 51.6831 147.628 52.4117 147.628 53.4093V57.1642H146.685V53.6895C146.685 52.8488 146.652 52.2884 146.584 52.0082C146.472 51.5262 146.27 51.1675 145.956 50.9209C145.653 50.6743 145.249 50.551 144.744 50.551C144.172 50.551 143.667 50.7416 143.218 51.1115C142.769 51.4814 142.466 51.9521 142.332 52.5014C142.242 52.86 142.197 53.5213 142.197 54.4853V57.1642H141.254V49.8673L141.266 49.8561ZM155.931 49.8561H156.874V55.6622C156.874 56.6822 156.784 57.4332 156.604 57.9039C156.357 58.5765 155.931 59.0921 155.325 59.4507C154.719 59.8094 153.99 59.9888 153.126 59.9888C152.498 59.9888 151.937 59.8991 151.443 59.7197C150.938 59.5404 150.534 59.305 150.22 59.0024C149.906 58.6997 149.614 58.2626 149.356 57.691H150.377C150.657 58.1729 151.016 58.5316 151.454 58.767C151.892 59.0024 152.441 59.1145 153.092 59.1145C153.743 59.1145 154.27 58.9912 154.719 58.7558C155.157 58.5204 155.471 58.2178 155.662 57.8591C155.853 57.5004 155.942 56.9176 155.942 56.1105V55.7407C155.583 56.189 155.157 56.5365 154.641 56.7719C154.125 57.0072 153.586 57.1305 153.014 57.1305C152.34 57.1305 151.712 56.9624 151.117 56.6261C150.523 56.2899 150.074 55.8415 149.748 55.2811C149.423 54.7207 149.266 54.1042 149.266 53.4205C149.266 52.7367 149.434 52.1203 149.771 51.5374C150.108 50.9546 150.568 50.495 151.162 50.1587C151.757 49.8225 152.385 49.6431 153.036 49.6431C153.586 49.6431 154.091 49.7552 154.562 49.9794C155.033 50.2036 155.493 50.5735 155.931 51.1003V49.8337V49.8561ZM153.16 50.5735C152.632 50.5735 152.127 50.6968 151.678 50.9546C151.23 51.2124 150.859 51.571 150.601 52.0194C150.343 52.4677 150.209 52.9609 150.209 53.4877C150.209 54.2835 150.478 54.9449 151.016 55.4717C151.555 55.9985 152.251 56.2563 153.103 56.2563C153.956 56.2563 154.663 55.9985 155.191 55.4829C155.718 54.9673 155.976 54.2835 155.976 53.4429C155.976 52.8937 155.853 52.4005 155.617 51.9745C155.381 51.5486 155.033 51.2011 154.585 50.9546C154.15 50.7097 153.659 50.5822 153.16 50.5847V50.5735ZM159.926 55.6734C160.035 55.6714 160.143 55.6915 160.244 55.7326C160.345 55.7737 160.437 55.8349 160.513 55.9125C160.59 55.9901 160.65 56.0825 160.69 56.1839C160.73 56.2854 160.748 56.3939 160.745 56.5029C160.745 56.7382 160.666 56.9288 160.509 57.0857C160.352 57.2426 160.15 57.3323 159.926 57.3323C159.701 57.3323 159.499 57.2538 159.342 57.0857C159.185 56.9176 159.106 56.727 159.106 56.5029C159.106 56.2787 159.185 56.0769 159.342 55.9088C159.499 55.7407 159.701 55.6734 159.926 55.6734ZM169.777 51.3693L169.037 51.8288C168.397 50.977 167.511 50.551 166.4 50.551C165.513 50.551 164.773 50.8313 164.189 51.4029C163.606 51.9745 163.303 52.6695 163.303 53.4877C163.303 54.0145 163.438 54.5189 163.707 54.9897C163.976 55.4604 164.347 55.8191 164.818 56.0769C165.289 56.3347 165.816 56.4692 166.4 56.4692C167.477 56.4692 168.352 56.0433 169.026 55.1914L169.766 55.6846C169.418 56.2114 168.947 56.6149 168.364 56.9064C167.78 57.1978 167.107 57.3435 166.355 57.3435C165.199 57.3435 164.246 56.9736 163.483 56.245C163.114 55.9041 162.821 55.4892 162.624 55.0276C162.427 54.566 162.329 54.068 162.338 53.5662C162.338 52.86 162.518 52.2099 162.865 51.6047C163.224 50.9994 163.707 50.5286 164.335 50.1924C164.952 49.8561 165.648 49.6768 166.422 49.6768C166.905 49.6768 167.376 49.7552 167.825 49.9009C168.274 50.0467 168.655 50.2372 168.969 50.4726C169.284 50.708 169.553 51.0106 169.766 51.3805L169.777 51.3693ZM175.04 49.6656C176.162 49.6656 177.093 50.0691 177.834 50.8873C178.507 51.6271 178.844 52.5014 178.844 53.5213C178.844 54.5413 178.485 55.4268 177.778 56.189C177.071 56.9512 176.151 57.3323 175.04 57.3323C173.929 57.3323 173.009 56.9512 172.291 56.189C171.573 55.4268 171.225 54.5413 171.225 53.5213C171.225 52.5014 171.561 51.6383 172.235 50.8985C172.975 50.0803 173.907 49.6768 175.04 49.6768V49.6656ZM175.04 50.5847C174.254 50.5847 173.592 50.8761 173.031 51.4477C172.47 52.0194 172.19 52.7255 172.19 53.5438C172.19 54.0706 172.313 54.5638 172.571 55.0233C172.829 55.4829 173.177 55.8303 173.604 56.0769C174.03 56.3235 174.512 56.4468 175.04 56.4468C175.567 56.4468 176.038 56.3235 176.476 56.0769C176.914 55.8303 177.262 55.4717 177.508 55.0233C177.766 54.5638 177.89 54.0706 177.89 53.5438C177.89 52.7255 177.609 52.0306 177.048 51.4477C176.487 50.8649 175.814 50.5847 175.04 50.5847ZM180.572 49.8561H181.514V51.1115C181.839 50.6407 182.176 50.3045 182.524 50.0915C182.995 49.8113 183.5 49.6656 184.016 49.6656C184.375 49.6656 184.712 49.7328 185.026 49.8785C185.34 50.013 185.61 50.2036 185.812 50.4278C186.014 50.6519 186.182 50.9882 186.339 51.4141C186.653 50.8425 187.046 50.4053 187.506 50.1139C187.977 49.8225 188.482 49.6656 189.021 49.6656C189.526 49.6656 189.974 49.7889 190.356 50.0467C190.737 50.3045 191.029 50.6519 191.22 51.1115C191.411 51.571 191.5 52.2548 191.5 53.1627V57.1417H190.535V53.1627C190.535 52.3781 190.479 51.84 190.367 51.5486C190.255 51.2572 190.064 51.0218 189.795 50.8425C189.526 50.6631 189.2 50.5735 188.83 50.5735C188.37 50.5735 187.955 50.708 187.584 50.977C187.214 51.246 186.934 51.6047 186.765 52.053C186.586 52.5014 186.507 53.2411 186.507 54.2947V57.153H185.565V53.4205C185.565 52.535 185.509 51.9409 185.396 51.6271C185.284 51.3132 185.093 51.0554 184.824 50.8649C184.555 50.6743 184.23 50.5847 183.848 50.5847C183.41 50.5847 183.006 50.7192 182.636 50.977C182.266 51.2348 181.974 51.5935 181.795 52.0306C181.615 52.4677 181.525 53.1515 181.525 54.0594V57.153H180.583V49.8561H180.572ZM52.6339 35.8004C53.3184 36.316 54.7434 36.9213 55.843 36.9213C56.9426 36.9213 57.4363 36.4393 57.4363 35.6884C57.4363 34.9374 57.0661 34.5675 55.6747 33.9958C53.1949 32.9759 52.2412 31.317 52.2636 29.5684C52.2636 26.8223 54.1824 24.7487 57.1446 24.7487C58.5472 24.7487 59.7927 25.141 60.5332 25.5893L59.8712 28.7502C59.3326 28.3915 58.3003 27.9095 57.268 27.9095C56.3592 27.9095 55.843 28.3579 55.843 29.1201C55.843 29.815 56.3143 30.1737 57.7842 30.8126C60.062 31.7765 61.0269 33.2 61.0494 35.3633C61.0494 38.1094 59.2877 40.127 55.843 40.127C54.2721 40.127 52.8695 39.7011 51.9719 39.107L52.6339 35.8229V35.8004ZM63.3159 30.0168C63.3159 28.0889 63.2711 26.43 63.215 25.0737H66.4577L66.626 27.1249H66.6709C67.5574 25.5557 68.9263 24.7375 70.6655 24.7375C73.2911 24.7375 75.6474 27.5397 75.6474 32.2473C75.6474 37.6162 72.8759 40.1494 70.2054 40.1494C68.758 40.1494 67.6247 39.4208 67.0861 38.4569H67.0412V45.7874H63.3159V30.0168ZM67.0412 33.4802C67.0412 33.8389 67.0636 34.1752 67.1197 34.4442C67.3666 35.6771 68.2194 36.6187 69.3078 36.6187C70.9235 36.6187 71.8885 34.9598 71.8885 32.4603C71.8885 30.1064 71.0245 28.3243 69.3639 28.3243C68.3091 28.3243 67.3778 29.2882 67.131 30.6445C67.0861 30.8798 67.0524 31.1825 67.0524 31.4627V33.4802H67.0412ZM89.9201 32.2697C89.9201 37.6611 86.8007 40.1382 83.5916 40.1382C80.0796 40.1382 77.3866 37.3024 77.3866 32.5387C77.3866 27.775 79.9337 24.7263 83.7936 24.7263C87.6535 24.7263 89.9313 27.8311 89.9313 32.2697H89.9201ZM81.2241 32.4266C81.2241 34.9598 82.0881 36.8541 83.6814 36.8541C85.1289 36.8541 86.0602 35.0719 86.0602 32.4266C86.0602 30.2297 85.3757 27.9992 83.6814 27.9992C81.8861 27.9992 81.2241 30.2634 81.2241 32.4266ZM92.2315 29.9271C92.2315 27.7526 92.1866 26.3403 92.1305 25.0737H95.3396L95.4631 27.7862H95.564C96.1812 25.6454 97.6511 24.7375 98.8068 24.7375C99.1546 24.7375 99.323 24.7375 99.5923 24.7935V29.1089C99.323 29.0528 99.0088 28.9856 98.5824 28.9856C97.2135 28.9856 96.271 29.8935 96.0353 31.3058C95.9904 31.6084 95.9568 31.9671 95.9568 32.3258V39.8019H92.2315V29.9159V29.9271ZM106.235 20.8481V25.0737H108.905V28.4476H106.235V33.7829C106.235 35.5651 106.583 36.3721 107.705 36.3721C108.176 36.3721 108.535 36.316 108.804 36.2488L108.827 39.7123C108.333 39.9589 107.458 40.1046 106.403 40.1046C105.203 40.1046 104.193 39.589 103.609 38.838C102.925 37.9637 102.577 36.5514 102.577 34.4666V28.4363H100.984V25.0625H102.577V21.8681L106.235 20.8481ZM111.049 35.8004C111.733 36.316 113.158 36.9213 114.258 36.9213C115.357 36.9213 115.851 36.4393 115.851 35.6884C115.851 34.9374 115.481 34.5675 114.089 33.9958C111.61 32.9759 110.656 31.317 110.678 29.5684C110.678 26.8223 112.597 24.7487 115.559 24.7487C116.962 24.7487 118.207 25.141 118.948 25.5893L118.286 28.7502C117.747 28.3915 116.715 27.9095 115.683 27.9095C114.774 27.9095 114.258 28.3579 114.258 29.1201C114.258 29.815 114.729 30.1737 116.199 30.8126C118.477 31.7765 119.442 33.2 119.464 35.3633C119.464 38.1094 117.702 40.127 114.258 40.127C112.687 40.127 111.284 39.7011 110.387 39.107L111.049 35.8229V35.8004ZM209.094 25.0625L208.859 27.7638C207.636 27.8423 207.007 28.2122 206.603 29.2658C206.3 29.2434 206.143 29.0416 206.031 28.9183C205.863 27.3939 207.187 27.506 207.568 26.6318C207.871 26.6542 207.804 26.0489 208.219 26.0825C208.051 24.5581 208.904 23.8408 208.747 22.1931C209.139 21.1395 209.891 20.9041 210.284 19.9066C210.261 18.8193 210.071 17.4631 210.587 16.4207C210.867 16.6224 210.834 17.0483 211.114 17.3734C211.114 17.3734 211.608 17.2949 211.597 17.4182C211.698 17.6088 211.675 17.9114 212.158 17.9562C211.316 18.6063 212.023 19.4582 211.978 20.0635C211.709 21.0723 211.013 22.0922 210.632 22.9665C210.149 23.6502 209.588 24.5133 209.117 25.0737L209.094 25.0625Z" fill="#495057"/>
<path d="M232.871 27.3604C232.063 27.5958 230.784 27.0017 229.359 27.3604C229.09 27.0353 228.989 26.7215 228.719 26.3964C228.282 25.8696 227.911 25.242 227.496 24.4798C227.406 24.1659 227.115 23.9642 227.148 23.6615L227.171 23.3589C226.902 23.0338 226.61 22.8881 226.329 22.5631C226.195 22.0699 226.094 21.7561 225.948 21.4422C225.701 20.8145 223.749 18.8306 223.03 18.7633C222.077 19.2902 222.021 21.2741 222.088 22.6191C222.166 23.1123 222.425 23.5607 222.57 24.0538C222.66 24.3677 222.324 24.76 222.806 24.8048C222.256 25.5446 222.492 26.2956 222.324 26.8784C222.312 27.0578 222.009 27.0353 221.998 27.1474C221.987 27.3268 221.976 27.4501 221.976 27.4501C221.774 27.7303 221.751 27.9096 221.605 28.201C221.37 28.7839 220.382 29.7254 220.551 31.261C220.36 32.0344 221.258 32.225 221.516 32.7406C221.628 32.8751 221.46 33.3458 221.763 33.3682C221.662 34.5676 221.538 35.8902 221.426 37.2689C221.392 37.6836 221.819 37.6051 222.099 37.9302C222.391 38.0759 222.368 38.3785 222.66 38.4009C222.806 40.2279 223.176 42.862 221.875 43.9604C221.269 43.9044 220.674 43.8596 220.068 43.8035C219.978 43.4897 219.698 43.1646 219.238 42.9404C219.44 42.6602 219.272 42.5257 218.991 42.3128C219.99 39.8581 219.294 37.493 217.689 36.4506C217.241 36.7196 217.005 37.3025 216.837 37.8853C215.726 38.0871 216.466 36.6412 215.243 36.7196C214.346 36.6412 214.548 37.6836 213.93 37.9414C212.427 37.8069 212.236 36.5851 211.686 35.935C212.012 32.2137 212.079 27.9769 212.842 24.8384C213.482 24.4686 214.189 24.6479 214.817 24.4013C214.996 24.4125 215.154 24.009 215.333 24.0202C215.647 23.8633 216.22 24.222 216.264 23.796C216.32 23.1908 215.838 23.1571 215.412 23.1123C215.423 22.933 215.277 22.6191 214.974 22.5855C215.176 22.3053 215.333 21.8906 215.816 21.9354C216.13 21.7785 216.32 21.0723 216.646 20.7921C217.566 20.6912 218.004 21.218 218.598 21.2629C218.8 20.3774 217.42 20.8594 217.813 19.8058C218.441 19.5592 219.081 19.1893 219.821 18.9539C219.294 18.1245 218.295 17.7321 217.903 16.6673C217.173 16.7234 216.579 16.5552 216.32 16.0508C216.522 15.1654 218.06 14.8739 218.8 15.3559C218.856 14.7506 217.611 15.1317 218.127 14.0893C218.733 14.0221 219.339 14.0781 219.608 14.4032C219.833 13.9436 219.339 14.0781 219.227 13.8876C218.654 13.5401 218.34 13.6858 217.521 14.0445C216.646 13.6634 215.636 13.4616 214.895 12.9124C214.604 12.7667 214.435 13.3608 213.818 13.428C212.898 13.5289 211.529 13.2263 211.417 14.6049C210.587 13.7419 212.045 12.9685 212.382 12.5762C213.1 12.6434 213.886 12.7107 214.211 12.4304C214.929 12.4977 215.535 12.5425 215.58 11.9485C216.186 12.0045 216.32 12.4417 216.904 12.6658C217.532 12.4192 216.534 11.4217 217.083 10.5586C216.848 9.75158 216.5 9.79641 216.276 8.86609C216.949 6.69161 216.803 4.78614 218.89 5.08877C220.259 5.3914 220.248 6.90457 221.246 7.90215C221.381 9.85245 220.697 10.6931 220.382 12.1839C220.483 13.103 222.335 12.6546 223.221 12.9124C223.737 13.9885 223.603 15.4904 224.568 16.1741C224.523 16.6561 226.026 18.8978 226.542 19.8618C226.655 19.9963 227.698 21.9018 227.687 22.0811C227.844 22.395 227.81 22.6976 227.911 23.0114C228.181 23.3365 228.641 23.684 228.899 24.1323C229 24.3228 228.977 24.6255 229.134 24.9393C229.247 25.0738 229.55 25.0962 229.516 25.3989C230.604 25.3765 230.851 26.0041 231.895 25.9145C231.827 26.6991 233.252 26.3404 232.86 27.394L232.871 27.3604Z" fill="#495057"/>
</g>
<defs>
<clipPath id="clip0_11_357">
<rect width="243.6" height="60" fill="white" transform="translate(0.199951)"/>
</clipPath>
</defs>
</svg>
