<svg width="320" height="59" viewBox="0 0 320 59" fill="none" xmlns="http://www.w3.org/2000/svg">
<path d="M34.7162 0.376172C36.8006 0.841451 39.6668 1.80923 39.7784 2.0884C39.8157 2.21868 38.2523 3.96813 36.0748 6.20147C33.9904 8.32315 31.7012 10.6868 30.994 11.4126C30.3053 12.1571 29.6167 12.7712 29.5051 12.7712C29.3748 12.7712 28.5001 11.9151 27.5323 10.8543C26.5831 9.81205 24.3684 7.50426 22.6375 5.7362C20.8881 3.96813 19.455 2.38619 19.455 2.2373C19.455 1.86507 21.0928 1.2509 23.7356 0.599511C26.2853 -0.0332691 26.2853 -0.033273 30.0634 0.0225605C32.2781 0.0597829 33.8601 0.171449 34.7162 0.376172ZM14.8208 9.08621C17.0542 11.2637 21.2975 15.414 24.2567 18.336L29.5981 23.6588L30.3984 22.8585C30.8265 22.4118 33.1901 20.104 35.6468 17.7404C38.1034 15.3768 41.044 12.5107 42.1607 11.3754C45.9573 7.52287 48.3582 5.32675 48.7304 5.32675C49.1771 5.32675 53.7926 9.79344 53.7926 10.2401C53.7926 10.5193 51.3732 13.0504 39.462 25.1104C37.2659 27.3252 35.4234 29.298 35.4048 29.4468C35.3304 29.7818 39.7412 34.2299 48.8049 42.9958C51.6338 45.7316 54.016 48.1325 54.0718 48.3372C54.1649 48.6164 53.9229 49.0258 53.104 49.9564C50.331 53.1203 48.3954 54.8511 48.3954 54.1253C48.3954 53.9578 29.8773 35.421 29.6167 35.328C29.4306 35.2721 12.2525 52.3572 11.4708 53.3994C10.4844 54.7022 10.5589 54.7394 7.69276 51.8361C6.27831 50.403 5.06858 49.063 4.99413 48.8769C4.90108 48.5978 6.50164 46.9414 13.2761 40.2786C21.8559 31.8663 24.0148 29.6888 24.0148 29.4282C24.0148 29.3352 19.79 25.0918 14.6161 19.9738C9.44221 14.8743 5.21747 10.5565 5.21747 10.389C5.23608 9.94232 9.96332 5.14064 10.3914 5.14064C10.5961 5.14064 12.4386 6.79703 14.8208 9.08621ZM7.4322 24.031C10.2053 26.8599 12.4758 29.2793 12.4758 29.4096C12.4758 29.5399 10.8939 31.3266 8.95832 33.3552C4.02635 38.5477 2.31412 40.2041 2.01635 40.0738C1.71857 39.9622 0.732175 36.4446 0.285507 33.9135C-0.310051 30.4518 0.062171 24.2543 1.06717 21.0718C1.62551 19.2665 1.81162 18.9129 2.12801 18.9129C2.25829 18.9129 4.64052 21.2207 7.4322 24.031ZM57.6824 19.6946C58.2221 20.9788 58.9852 24.0868 59.1899 25.8921C59.6552 30.0982 59.2085 34.081 57.7754 38.5105C57.4032 39.6272 57.2171 39.9436 56.9752 39.9063C56.6774 39.8505 47.2974 30.3588 46.7948 29.5957C46.5343 29.2235 46.5901 29.1305 47.7626 28.0138C48.4512 27.3624 50.7962 25.036 52.9924 22.8585C55.1699 20.6996 57.0496 18.9129 57.1613 18.9129C57.2543 18.9129 57.4963 19.2665 57.6824 19.6946ZM32.7806 49.1933C37.1356 53.6042 39.8901 56.6378 39.6482 56.7867C39.3132 56.9914 36.3726 57.8103 34.8651 58.0895C30.3426 58.9828 25.392 58.7036 21.2231 57.3264C20.46 57.0658 19.7156 56.7495 19.5853 56.6192C19.3806 56.4145 20.1995 55.5025 24.4242 51.2592C27.2159 48.4303 29.5423 46.1225 29.5981 46.1039C29.6539 46.1039 31.087 47.4811 32.7806 49.1933Z" fill="#495057"/>
<mask id="path-2-inside-1_3256_4090" fill="white">
<path d="M169.887 11.5423C170.166 11.6539 172.604 15.2459 175.321 19.5637C175.973 20.6245 176.587 21.5179 176.68 21.5737C176.866 21.6854 178.169 19.7312 181.016 15.0598C182.133 13.2173 183.157 11.6539 183.268 11.5609C183.51 11.3934 192.983 11.4678 193.151 11.6539C193.263 11.747 187.009 21.4248 184.85 24.4584C184.46 25.0168 183.566 26.3009 182.896 27.2873L181.649 29.1112L182.785 30.8234C183.417 31.7726 184.255 33.0196 184.627 33.5779C190.136 41.5435 193.17 46.401 192.983 46.9035C192.909 47.1268 192.127 47.1641 188.498 47.1641H184.106L183.696 46.7174C183.473 46.4754 182.654 45.2843 181.891 44.0932C179.36 40.1476 177.406 37.2071 177.071 36.8721C176.754 36.5371 176.606 36.7418 173.442 41.4318C171.636 44.1304 170.036 46.4941 169.868 46.6988C169.608 47.0524 169.347 47.071 165.011 47.1268C162.201 47.1641 160.358 47.1082 160.246 46.9966C160.079 46.8291 161.437 44.7074 166.276 37.5793C167.263 36.1462 168.863 33.6523 169.868 32.0332L171.674 29.0926L170.389 27.1012C169.682 26.0031 168.342 23.9001 167.43 22.4112C166.518 20.9223 164.601 17.9631 163.206 15.8228C161.791 13.6825 160.693 11.84 160.749 11.6912C160.823 11.4864 161.661 11.4306 165.216 11.4306C167.616 11.4306 169.719 11.4864 169.887 11.5423ZM213.251 11.7098C215.875 12.2681 217.997 13.3662 219.877 15.1901C222.352 17.5537 223.375 19.7498 223.524 23.0626C223.636 25.5565 223.32 27.2315 222.389 29.167C220.807 32.424 218.127 34.6201 214.368 35.681C213.251 35.9974 212.488 36.0532 209.157 36.0718L205.248 36.0904L205.137 41.4132C205.062 44.3538 204.969 46.8477 204.895 46.9593C204.708 47.2571 197.115 47.2385 196.817 46.9407C196.65 46.7732 196.594 42.5857 196.594 29.2601C196.594 12.845 196.613 11.8028 196.929 11.6353C197.134 11.505 199.944 11.4492 204.597 11.4306C210.366 11.4306 212.227 11.505 213.251 11.7098ZM253.507 15.2273C253.544 18.0003 253.488 18.9867 253.321 19.2101C253.098 19.452 252.037 19.4706 244.183 19.3776L235.305 19.2659L235.342 23.2115L235.398 27.157L242.768 27.2129C248.445 27.2501 250.176 27.3059 250.213 27.492C250.25 27.6037 250.25 29.3532 250.194 31.3446L250.101 34.9737L242.75 35.0668L235.398 35.1598L235.342 37.7096L235.287 40.2779H244.425H253.544V43.5907V46.9221L240.405 47.0338C233.184 47.0896 227.154 47.0896 227.005 47.0338C226.781 46.9593 226.744 44.5027 226.744 29.3718C226.744 12.845 226.763 11.8028 227.079 11.6353C227.284 11.505 231.806 11.4492 240.423 11.4864L253.451 11.5236L253.507 15.2273ZM279.302 12.0634C282.838 13.3289 285.742 15.9159 287.23 19.0984C288.682 22.2065 288.254 27.3618 286.3 30.414C285.593 31.5121 283.936 33.1126 282.54 34.0432C281.945 34.434 281.461 34.7876 281.461 34.8435C281.461 34.8993 281.982 35.7368 282.615 36.7232C284.234 39.2543 286.635 43.2557 287.696 45.1913C288.403 46.5127 288.533 46.8663 288.329 46.9966C288.18 47.0896 286.207 47.1455 283.936 47.1268C280.047 47.071 279.786 47.0524 279.525 46.6988C279.377 46.4941 277.85 44.0002 276.157 41.1526L273.067 35.9974H270.015H266.944V41.2271C266.944 44.4654 266.87 46.5871 266.758 46.8105C266.572 47.1455 266.33 47.1641 262.682 47.1641C259.611 47.1641 258.774 47.1082 258.7 46.9221C258.532 46.4941 258.476 11.9145 258.644 11.6539C258.755 11.4678 260.71 11.4306 268.303 11.4678L277.832 11.5236L279.302 12.0634ZM319.763 11.5981C320.079 11.8028 320.079 18.8006 319.763 19.1915C319.614 19.3776 318.534 19.4334 314.98 19.4334H310.383L310.364 32.9079C310.346 42.474 310.271 46.4941 310.141 46.7732C309.936 47.1454 309.787 47.1641 306.158 47.1641C303.459 47.1641 302.324 47.1082 302.157 46.9407C301.989 46.7732 301.933 43.4418 301.933 33.0754V19.4334H296.369H290.804L290.729 15.7484C290.692 13.7384 290.729 11.9331 290.822 11.747C290.953 11.4492 291.827 11.4306 305.246 11.4306C313.1 11.4306 319.633 11.505 319.763 11.5981ZM84.9269 12.1192C84.9269 12.417 84.9269 15.7112 84.9269 19.452V26.2823L88.5003 26.4126C90.4731 26.4684 93.637 26.5056 95.5353 26.4684L98.9784 26.4126L99.0342 19.0053L99.0714 11.6167H102.794H106.516V29.2973V46.9779H102.794H99.0714V40.2779V33.5779L92.055 33.6151L85.02 33.671L84.9641 40.0732C84.9455 44.1863 84.8525 46.5685 84.7222 46.7174C84.5733 46.8849 83.6614 46.9407 81.0558 46.9221L77.5755 46.8849L77.5197 29.4834C77.5011 19.9173 77.5197 11.9703 77.5755 11.84C77.6313 11.6725 78.5619 11.6167 81.2977 11.6167H84.9269V12.1192ZM121.368 29.2415L121.312 46.8849L117.571 46.9407L113.811 46.9966L113.737 46.5685C113.663 46.2335 113.681 11.8587 113.756 11.6539C113.774 11.6353 115.486 11.6167 117.59 11.6167H121.405L121.368 29.2415ZM149.173 11.8214C153.472 12.6775 157.269 16.0089 158.683 20.1778C159.223 21.7784 159.204 25.9287 158.646 27.8084C158.032 29.8184 157.213 31.2329 156.059 32.2937C155.017 33.2429 152.634 34.6946 152.076 34.6946C151.909 34.6946 151.704 34.7876 151.648 34.8993C151.499 35.1226 151.909 36.1835 152.132 36.1835C152.225 36.1835 152.299 36.2765 152.299 36.3696C152.299 36.5929 152.727 37.2815 156.04 42.3252C157.436 44.4468 158.646 46.3452 158.702 46.5685L158.832 46.9779H154.644H150.457L150.103 46.4568C149.694 45.8799 148.205 43.4418 148.205 43.3488C148.205 43.3115 147.516 42.2507 146.697 40.9851C145.86 39.7382 144.725 38.0074 144.185 37.1885L143.18 35.681L140.239 35.5879C138.639 35.5321 137.206 35.5321 137.094 35.5693C136.908 35.6437 136.852 36.9279 136.852 41.1154C136.852 45.5263 136.796 46.6057 136.592 46.7732C136.424 46.9221 135.289 46.9779 132.925 46.9407L129.501 46.8849L129.389 44.8377C129.333 43.7024 129.277 35.774 129.259 27.1943L129.222 11.6167H138.695C144.669 11.6167 148.559 11.6911 149.173 11.8214Z"/>
</mask>
<path d="M169.887 11.5423C170.166 11.6539 172.604 15.2459 175.321 19.5637C175.973 20.6245 176.587 21.5179 176.68 21.5737C176.866 21.6854 178.169 19.7312 181.016 15.0598C182.133 13.2173 183.157 11.6539 183.268 11.5609C183.51 11.3934 192.983 11.4678 193.151 11.6539C193.263 11.747 187.009 21.4248 184.85 24.4584C184.46 25.0168 183.566 26.3009 182.896 27.2873L181.649 29.1112L182.785 30.8234C183.417 31.7726 184.255 33.0196 184.627 33.5779C190.136 41.5435 193.17 46.401 192.983 46.9035C192.909 47.1268 192.127 47.1641 188.498 47.1641H184.106L183.696 46.7174C183.473 46.4754 182.654 45.2843 181.891 44.0932C179.36 40.1476 177.406 37.2071 177.071 36.8721C176.754 36.5371 176.606 36.7418 173.442 41.4318C171.636 44.1304 170.036 46.4941 169.868 46.6988C169.608 47.0524 169.347 47.071 165.011 47.1268C162.201 47.1641 160.358 47.1082 160.246 46.9966C160.079 46.8291 161.437 44.7074 166.276 37.5793C167.263 36.1462 168.863 33.6523 169.868 32.0332L171.674 29.0926L170.389 27.1012C169.682 26.0031 168.342 23.9001 167.43 22.4112C166.518 20.9223 164.601 17.9631 163.206 15.8228C161.791 13.6825 160.693 11.84 160.749 11.6912C160.823 11.4864 161.661 11.4306 165.216 11.4306C167.616 11.4306 169.719 11.4864 169.887 11.5423ZM213.251 11.7098C215.875 12.2681 217.997 13.3662 219.877 15.1901C222.352 17.5537 223.375 19.7498 223.524 23.0626C223.636 25.5565 223.32 27.2315 222.389 29.167C220.807 32.424 218.127 34.6201 214.368 35.681C213.251 35.9974 212.488 36.0532 209.157 36.0718L205.248 36.0904L205.137 41.4132C205.062 44.3538 204.969 46.8477 204.895 46.9593C204.708 47.2571 197.115 47.2385 196.817 46.9407C196.65 46.7732 196.594 42.5857 196.594 29.2601C196.594 12.845 196.613 11.8028 196.929 11.6353C197.134 11.505 199.944 11.4492 204.597 11.4306C210.366 11.4306 212.227 11.505 213.251 11.7098ZM253.507 15.2273C253.544 18.0003 253.488 18.9867 253.321 19.2101C253.098 19.452 252.037 19.4706 244.183 19.3776L235.305 19.2659L235.342 23.2115L235.398 27.157L242.768 27.2129C248.445 27.2501 250.176 27.3059 250.213 27.492C250.25 27.6037 250.25 29.3532 250.194 31.3446L250.101 34.9737L242.75 35.0668L235.398 35.1598L235.342 37.7096L235.287 40.2779H244.425H253.544V43.5907V46.9221L240.405 47.0338C233.184 47.0896 227.154 47.0896 227.005 47.0338C226.781 46.9593 226.744 44.5027 226.744 29.3718C226.744 12.845 226.763 11.8028 227.079 11.6353C227.284 11.505 231.806 11.4492 240.423 11.4864L253.451 11.5236L253.507 15.2273ZM279.302 12.0634C282.838 13.3289 285.742 15.9159 287.23 19.0984C288.682 22.2065 288.254 27.3618 286.3 30.414C285.593 31.5121 283.936 33.1126 282.54 34.0432C281.945 34.434 281.461 34.7876 281.461 34.8435C281.461 34.8993 281.982 35.7368 282.615 36.7232C284.234 39.2543 286.635 43.2557 287.696 45.1913C288.403 46.5127 288.533 46.8663 288.329 46.9966C288.18 47.0896 286.207 47.1455 283.936 47.1268C280.047 47.071 279.786 47.0524 279.525 46.6988C279.377 46.4941 277.85 44.0002 276.157 41.1526L273.067 35.9974H270.015H266.944V41.2271C266.944 44.4654 266.87 46.5871 266.758 46.8105C266.572 47.1455 266.33 47.1641 262.682 47.1641C259.611 47.1641 258.774 47.1082 258.7 46.9221C258.532 46.4941 258.476 11.9145 258.644 11.6539C258.755 11.4678 260.71 11.4306 268.303 11.4678L277.832 11.5236L279.302 12.0634ZM319.763 11.5981C320.079 11.8028 320.079 18.8006 319.763 19.1915C319.614 19.3776 318.534 19.4334 314.98 19.4334H310.383L310.364 32.9079C310.346 42.474 310.271 46.4941 310.141 46.7732C309.936 47.1454 309.787 47.1641 306.158 47.1641C303.459 47.1641 302.324 47.1082 302.157 46.9407C301.989 46.7732 301.933 43.4418 301.933 33.0754V19.4334H296.369H290.804L290.729 15.7484C290.692 13.7384 290.729 11.9331 290.822 11.747C290.953 11.4492 291.827 11.4306 305.246 11.4306C313.1 11.4306 319.633 11.505 319.763 11.5981ZM84.9269 12.1192C84.9269 12.417 84.9269 15.7112 84.9269 19.452V26.2823L88.5003 26.4126C90.4731 26.4684 93.637 26.5056 95.5353 26.4684L98.9784 26.4126L99.0342 19.0053L99.0714 11.6167H102.794H106.516V29.2973V46.9779H102.794H99.0714V40.2779V33.5779L92.055 33.6151L85.02 33.671L84.9641 40.0732C84.9455 44.1863 84.8525 46.5685 84.7222 46.7174C84.5733 46.8849 83.6614 46.9407 81.0558 46.9221L77.5755 46.8849L77.5197 29.4834C77.5011 19.9173 77.5197 11.9703 77.5755 11.84C77.6313 11.6725 78.5619 11.6167 81.2977 11.6167H84.9269V12.1192ZM121.368 29.2415L121.312 46.8849L117.571 46.9407L113.811 46.9966L113.737 46.5685C113.663 46.2335 113.681 11.8587 113.756 11.6539C113.774 11.6353 115.486 11.6167 117.59 11.6167H121.405L121.368 29.2415ZM149.173 11.8214C153.472 12.6775 157.269 16.0089 158.683 20.1778C159.223 21.7784 159.204 25.9287 158.646 27.8084C158.032 29.8184 157.213 31.2329 156.059 32.2937C155.017 33.2429 152.634 34.6946 152.076 34.6946C151.909 34.6946 151.704 34.7876 151.648 34.8993C151.499 35.1226 151.909 36.1835 152.132 36.1835C152.225 36.1835 152.299 36.2765 152.299 36.3696C152.299 36.5929 152.727 37.2815 156.04 42.3252C157.436 44.4468 158.646 46.3452 158.702 46.5685L158.832 46.9779H154.644H150.457L150.103 46.4568C149.694 45.8799 148.205 43.4418 148.205 43.3488C148.205 43.3115 147.516 42.2507 146.697 40.9851C145.86 39.7382 144.725 38.0074 144.185 37.1885L143.18 35.681L140.239 35.5879C138.639 35.5321 137.206 35.5321 137.094 35.5693C136.908 35.6437 136.852 36.9279 136.852 41.1154C136.852 45.5263 136.796 46.6057 136.592 46.7732C136.424 46.9221 135.289 46.9779 132.925 46.9407L129.501 46.8849L129.389 44.8377C129.333 43.7024 129.277 35.774 129.259 27.1943L129.222 11.6167H138.695C144.669 11.6167 148.559 11.6911 149.173 11.8214Z" fill="#495057" stroke="#495057" stroke-width="0.279167" mask="url(#path-2-inside-1_3256_4090)"/>
<path d="M205.155 23.8999V28.59L208.281 28.5155C211.222 28.4597 211.445 28.4225 212.339 27.9572C214.814 26.6544 215.8 24.3094 214.758 22.1319C214.218 20.978 213.623 20.3266 212.581 19.7683C211.836 19.3774 211.501 19.3402 208.468 19.2844L205.155 19.2099V23.8999Z" fill="#F8F9FA"/>
<path d="M268.805 19.4146L267.037 19.5263V24.086V28.6457L271.392 28.7016C275.71 28.7388 275.747 28.7388 276.789 28.2735C278.129 27.6594 278.613 27.1941 279.153 26.0402C280.418 23.3416 278.874 20.0474 276.063 19.4518C275.096 19.2471 272.025 19.2285 268.805 19.4146Z" fill="#F8F9FA"/>
<path d="M137.038 23.7139V28.5714L142.398 28.5156C147.516 28.4597 147.777 28.4411 148.67 28.0317C149.805 27.5106 150.922 26.3567 151.183 25.4261C151.815 23.0997 150.68 20.4755 148.521 19.303C148 19.0239 147.218 18.968 142.491 18.9122L137.038 18.8378V23.7139Z" fill="#F8F9FA"/>
</svg>
