<svg width="205" height="60" viewBox="0 0 205 60" fill="none" xmlns="http://www.w3.org/2000/svg">
<g clip-path="url(#clip0_118_986)">
<path d="M64.283 15.8271L61.1916 14.7024C59.4154 14.0401 58.4946 13.4455 58.4946 12.0562C58.4946 9.74053 61.1916 9.54214 61.9809 9.54214C63.9279 9.5216 65.818 10.2017 67.3101 11.4598L67.8364 11.8569V8.41744L67.7047 8.35121C66.1907 7.29273 64.1516 6.76349 61.9151 6.76349C58.626 6.76349 55.337 8.41744 55.337 12.0562C55.337 15.2978 57.6395 16.6209 59.9416 17.481L62.7702 18.5395C64.8096 19.3334 65.6644 19.9288 65.6644 21.4503C65.6644 23.1705 64.283 24.0965 61.8492 24.0965C59.677 24.1202 57.5712 23.3437 55.9291 21.9133L55.4029 21.4506V24.9569L55.5346 25.0894C57.0474 26.2803 59.3498 26.9417 61.8504 26.9417C65.9946 26.9417 68.7574 24.6923 68.7574 21.3844C68.8233 18.672 67.4404 17.0192 64.2842 15.8271" fill="#495057"/>
<path d="M87.1092 15.1653H76.7824V7.02802H73.6241V26.677H76.7815V18.0102H87.1083V26.677H90.3314V7.02802H87.1092V15.1653Z" fill="#495057"/>
<path d="M96.1866 7.02802H99.344V26.677H96.1866V7.02802Z" fill="#495057"/>
<path d="M118.552 20.7888L108.093 7.02802H105.198V26.677H108.29V12.2545L119.21 26.677H121.578V7.02802H118.552V20.7888Z" fill="#495057"/>
<path d="M127.432 7.02802H130.59V26.677H127.432V7.02802Z" fill="#495057"/>
<path d="M149.797 20.7888L139.339 7.02802H136.51V26.677H139.536V12.2545L150.521 26.677H152.823V7.02802H149.797V20.7888Z" fill="#495057"/>
<path d="M171.176 22.8396C170.058 23.6997 168.742 24.0965 167.032 24.0965C163.217 24.0965 160.716 21.2516 160.716 16.819C160.716 12.4538 163.347 9.5415 167.294 9.5415C169.289 9.49274 171.224 10.2286 172.688 11.5925L173.214 12.0558V8.54955L173.083 8.41709C171.637 7.29328 169.533 6.63098 167.295 6.63098C161.572 6.63098 157.559 10.799 157.559 16.7531C157.559 22.774 161.374 26.8751 166.966 26.8751C169.005 26.8751 171.899 26.4121 174.07 24.0302L174.136 23.964V16.8193H171.176V22.8396Z" fill="#495057"/>
<path d="M89.2138 44.5393C89.2138 48.178 87.5693 50.1628 84.4119 50.1628C81.2546 50.1628 79.6101 48.2443 79.6101 44.5393V33.0941H76.4525V44.8701C76.4525 49.8976 79.4784 53.0074 84.4119 53.0074C89.4107 53.0074 92.3714 49.9641 92.3714 44.8701V33.0941H89.2138V44.5393Z" fill="#495057"/>
<path d="M108.159 45.3334H101.909L105.001 37.3283L108.159 45.3334ZM103.62 33.0941L95.7262 52.7431H98.9494L100.726 48.2443H109.211L110.987 52.7431H114.211L106.317 33.0941H103.62Z" fill="#495057"/>
<path d="M121.512 33.0941H118.355V52.7431H131.445V49.8323H121.512V33.0941Z" fill="#495057"/>
<path d="M136.05 33.0941H139.207V52.7431H136.05V33.0941Z" fill="#495057"/>
<path d="M143.548 35.8728H150.324V52.7431H153.546V35.8728H160.321V33.0941H143.548V35.8728Z" fill="#495057"/>
<path d="M164.664 33.0941H167.821V52.7431H164.664V33.0941Z" fill="#495057"/>
<path d="M173.676 52.7431H186.766V49.8323H176.833V44.0763H185.845V41.2314H176.833V35.8728H186.766V33.0941H173.676V52.7431Z" fill="#495057"/>
<path d="M199.725 41.8934L196.633 40.7024C194.857 40.0401 193.936 39.4456 193.936 38.0562C193.936 35.7406 196.633 35.5422 197.422 35.5422C199.369 35.5216 201.26 36.2017 202.752 37.4599L203.278 37.857V34.4175L203.146 34.3513C201.634 33.2928 199.594 32.7635 197.358 32.7635C194.068 32.7635 190.779 34.4175 190.779 38.0562C190.779 41.2979 193.081 42.621 195.383 43.4811L198.212 44.5396C200.251 45.3334 201.106 45.9289 201.106 47.4504C201.106 49.1706 199.725 50.0966 197.291 50.0966C195.119 50.1203 193.013 49.3437 191.371 47.9134L190.845 47.4504V50.9567L190.976 51.0891C192.489 52.2801 194.791 52.9415 197.292 52.9415C201.436 52.9415 204.199 50.6921 204.199 47.3842C204.265 44.738 202.882 43.084 199.726 41.8931" fill="#495057"/>
<path d="M68.8879 42.8857C68.8879 47.2508 66.4541 50.1631 62.9013 50.1631C59.4151 50.1631 56.9812 47.1861 56.9812 42.8857C56.9812 38.5205 59.3492 35.6082 62.9013 35.6082C66.5193 35.6744 68.8879 38.5852 68.8879 42.8857ZM62.9013 32.7636C57.6394 32.7636 53.7584 36.9978 53.7584 42.8857C53.7584 48.7076 57.5736 53.0077 62.9019 53.0077C63.2759 53.0168 63.6499 52.9946 64.0202 52.9415H64.2175C64.5467 52.8753 64.8095 52.809 65.1385 52.7431L65.2702 52.6769C65.6272 52.5874 65.9786 52.4768 66.3227 52.3457C66.5733 52.2075 66.8379 52.0964 67.112 52.0146L68.6906 53.9994L70.9272 52.3454L69.2827 50.3606C70.5742 48.9317 71.4404 47.1665 71.7824 45.2663V45.2001C71.8482 44.8689 71.8482 44.6046 71.9141 44.2066V44.0742C71.9669 43.7018 71.989 43.3256 71.9799 42.9495C72.0458 36.9286 68.2961 32.7612 62.9022 32.7612" fill="#495057"/>
<path d="M24.8194 28.8169L36.583 35.662L21.7103 44.2816L7.08994 35.7463L0.200012 31.7746V39.2105L21.7103 51.6331L43.3047 39.2105V32.3662L30.9533 25.2675L24.8194 28.8169Z" fill="#495057"/>
<path d="M21.7103 6L0.200012 18.507V25.267L12.4677 32.4508L18.6856 28.8169L6.92202 21.9717L21.7103 13.3521L43.3047 25.8591V18.507L21.7103 6Z" fill="#495057"/>
<path d="M36.0787 49.7748L43.3047 54V45.6339L36.0787 49.7748Z" fill="#495057"/>
</g>
<defs>
<clipPath id="clip0_118_986">
<rect width="204" height="60" fill="white" transform="translate(0.200012)"/>
</clipPath>
</defs>
</svg>
