<svg width="345" height="60" viewBox="0 0 345 60" fill="none" xmlns="http://www.w3.org/2000/svg">
<path d="M125.874 36L133.112 10.7927H138.118L130.591 36H125.874ZM110.678 36L103.224 10.7927H108.229L115.395 36H110.678ZM111.326 36L118.204 10.7927H122.669L115.827 36H111.326ZM125.406 36L118.636 10.7927H123.101L130.123 36H125.406ZM147.097 36.4321C145.321 36.4321 143.748 36.036 142.38 35.2438C141.011 34.4275 139.931 33.3112 139.139 31.8948C138.371 30.4784 137.987 28.8459 137.987 26.9974C137.987 25.1488 138.383 23.5164 139.175 22.1C139.991 20.6835 141.095 19.5792 142.488 18.787C143.904 17.9708 145.525 17.5626 147.349 17.5626C148.934 17.5626 150.386 17.9828 151.707 18.823C153.051 19.6392 154.119 20.8516 154.911 22.4601C155.728 24.0445 156.136 25.9771 156.136 28.2578H142.488L142.92 27.8256C142.92 28.7139 143.136 29.4941 143.568 30.1663C144.024 30.8145 144.6 31.3186 145.297 31.6787C146.017 32.0148 146.785 32.1829 147.601 32.1829C148.586 32.1829 149.39 31.9788 150.014 31.5707C150.638 31.1386 151.118 30.5864 151.454 29.9142L155.704 31.5707C155.2 32.579 154.539 33.4553 153.723 34.1995C152.931 34.9197 151.983 35.4718 150.878 35.856C149.774 36.2401 148.514 36.4321 147.097 36.4321ZM143.172 25.1608L142.74 24.7287H151.418L151.022 25.1608C151.022 24.2966 150.818 23.6124 150.41 23.1083C150.002 22.5801 149.498 22.196 148.898 21.9559C148.322 21.7158 147.757 21.5958 147.205 21.5958C146.653 21.5958 146.065 21.7158 145.441 21.9559C144.817 22.196 144.276 22.5801 143.82 23.1083C143.388 23.6124 143.172 24.2966 143.172 25.1608ZM158.898 36V10.7927H163.652V32.651L163.4 36H158.898ZM169.089 36.4321C167.577 36.4321 166.292 36.048 165.236 35.2798C164.204 34.5116 163.412 33.4192 162.859 32.0028C162.307 30.5864 162.031 28.9179 162.031 26.9974C162.031 25.0528 162.307 23.3843 162.859 21.9919C163.412 20.5755 164.204 19.4832 165.236 18.715C166.292 17.9468 167.577 17.5626 169.089 17.5626C170.746 17.5626 172.174 17.9468 173.374 18.715C174.599 19.4832 175.547 20.5755 176.219 21.9919C176.891 23.3843 177.228 25.0528 177.228 26.9974C177.228 28.9179 176.891 30.5864 176.219 32.0028C175.547 33.4192 174.599 34.5116 173.374 35.2798C172.174 36.048 170.746 36.4321 169.089 36.4321ZM167.865 32.0749C168.729 32.0749 169.485 31.8588 170.133 31.4267C170.806 30.9945 171.334 30.3944 171.718 29.6261C172.102 28.8579 172.294 27.9817 172.294 26.9974C172.294 26.0131 172.102 25.1368 171.718 24.3686C171.358 23.6004 170.842 23.0122 170.169 22.6041C169.521 22.172 168.765 21.9559 167.901 21.9559C167.085 21.9559 166.352 22.172 165.704 22.6041C165.056 23.0362 164.552 23.6364 164.192 24.4046C163.832 25.1488 163.652 26.0131 163.652 26.9974C163.652 27.9817 163.832 28.8579 164.192 29.6261C164.552 30.3944 165.044 30.9945 165.668 31.4267C166.316 31.8588 167.049 32.0749 167.865 32.0749ZM201.668 36L209.446 10.7927H212.507L204.693 36H201.668ZM186.327 36L178.621 10.7927H181.682L189.316 36H186.327ZM186.652 36L194.07 10.7927H196.987L189.568 36H186.652ZM201.416 36L194.178 10.7927H197.095L204.441 36H201.416ZM221.868 36.4321C220.115 36.4321 218.555 36.036 217.187 35.2438C215.842 34.4275 214.786 33.3112 214.018 31.8948C213.249 30.4784 212.865 28.8459 212.865 26.9974C212.865 25.1488 213.237 23.5164 213.982 22.1C214.75 20.6835 215.806 19.5792 217.15 18.787C218.519 17.9708 220.067 17.5626 221.796 17.5626C223.572 17.5626 225.133 17.9708 226.477 18.787C227.846 19.5792 228.902 20.6835 229.646 22.1C230.414 23.5164 230.798 25.1488 230.798 26.9974C230.798 28.8459 230.414 30.4784 229.646 31.8948C228.902 33.3112 227.858 34.4275 226.513 35.2438C225.169 36.036 223.62 36.4321 221.868 36.4321ZM221.868 33.7674C223.068 33.7674 224.113 33.4793 225.001 32.9031C225.889 32.3269 226.585 31.5347 227.089 30.5264C227.618 29.5181 227.882 28.3418 227.882 26.9974C227.882 25.653 227.618 24.4767 227.089 23.4684C226.585 22.4601 225.877 21.6678 224.965 21.0917C224.052 20.5155 222.996 20.2274 221.796 20.2274C220.619 20.2274 219.575 20.5155 218.663 21.0917C217.775 21.6678 217.066 22.4601 216.538 23.4684C216.034 24.4767 215.782 25.653 215.782 26.9974C215.782 28.3178 216.034 29.4941 216.538 30.5264C217.066 31.5347 217.787 32.3269 218.699 32.9031C219.635 33.4793 220.692 33.7674 221.868 33.7674ZM236.383 26.2412C236.383 24.2966 236.755 22.7241 237.499 21.5238C238.243 20.2994 239.192 19.3992 240.344 18.823C241.52 18.2228 242.757 17.9227 244.053 17.9227V20.6235C242.997 20.6235 241.977 20.8036 240.992 21.1637C240.032 21.4998 239.24 22.0639 238.616 22.8562C237.991 23.6484 237.679 24.7287 237.679 26.0971L236.383 26.2412ZM234.798 36V17.9948H237.679V36H234.798ZM249.775 30.2023L247.938 28.2217L257.517 17.9948H261.154L249.775 30.2023ZM246.966 36V10.7927H249.847V36H246.966ZM258.309 36L251.467 25.665L253.34 23.6484L261.874 36H258.309ZM270.746 36.4321C269.425 36.4321 268.273 36.2401 267.289 35.856C266.304 35.4478 265.476 34.9197 264.804 34.2715C264.156 33.6233 263.688 32.9151 263.399 32.1469L265.92 31.1026C266.328 31.9188 266.94 32.579 267.757 33.0832C268.573 33.5873 269.473 33.8394 270.458 33.8394C271.586 33.8394 272.534 33.6233 273.302 33.1912C274.071 32.7351 274.455 32.0989 274.455 31.2826C274.455 30.5384 274.167 29.9382 273.59 29.4821C273.038 29.026 272.21 28.6539 271.106 28.3658L269.377 27.8976C267.745 27.4655 266.472 26.8173 265.56 25.9531C264.648 25.0648 264.192 24.0685 264.192 22.9642C264.192 21.2597 264.744 19.9393 265.848 19.0031C266.977 18.0428 268.645 17.5626 270.854 17.5626C271.91 17.5626 272.87 17.7187 273.734 18.0308C274.599 18.3429 275.343 18.787 275.967 19.3632C276.591 19.9153 277.047 20.5755 277.336 21.3437L274.815 22.4601C274.503 21.6438 273.987 21.0557 273.266 20.6956C272.546 20.3354 271.67 20.1554 270.638 20.1554C269.533 20.1554 268.669 20.3955 268.045 20.8756C267.421 21.3317 267.109 21.9799 267.109 22.8202C267.109 23.3003 267.361 23.7564 267.865 24.1886C268.393 24.5967 269.161 24.9328 270.169 25.1969L271.97 25.665C273.146 25.9531 274.131 26.3852 274.923 26.9614C275.715 27.5135 276.315 28.1497 276.723 28.8699C277.131 29.5901 277.336 30.3584 277.336 31.1746C277.336 32.2549 277.047 33.1912 276.471 33.9834C275.895 34.7756 275.115 35.3878 274.131 35.8199C273.146 36.2281 272.018 36.4321 270.746 36.4321ZM301.567 36.4321C299.166 36.4321 297.041 35.88 295.193 34.7756C293.344 33.6473 291.892 32.1109 290.836 30.1663C289.779 28.1977 289.251 25.9411 289.251 23.3963C289.251 20.8516 289.767 18.6069 290.799 16.6624C291.856 14.6938 293.296 13.1574 295.121 12.053C296.969 10.9247 299.082 10.3605 301.459 10.3605C302.971 10.3605 304.423 10.6366 305.816 11.1888C307.208 11.7169 308.457 12.4732 309.561 13.4574C310.665 14.4177 311.518 15.5341 312.118 16.8064L309.489 18.1388C309.009 17.1305 308.349 16.2543 307.508 15.51C306.668 14.7658 305.732 14.1897 304.7 13.7815C303.667 13.3494 302.587 13.1334 301.459 13.1334C299.706 13.1334 298.134 13.5775 296.741 14.4657C295.349 15.33 294.256 16.5303 293.464 18.0668C292.696 19.6032 292.312 21.3798 292.312 23.3963C292.312 25.4129 292.708 27.2014 293.5 28.7619C294.293 30.3223 295.385 31.5467 296.777 32.435C298.194 33.2992 299.79 33.7313 301.567 33.7313C302.719 33.7313 303.811 33.5033 304.844 33.0471C305.876 32.567 306.8 31.9188 307.616 31.1026C308.457 30.2863 309.117 29.3501 309.597 28.2938L312.262 29.6261C311.638 30.9465 310.773 32.1229 309.669 33.1552C308.589 34.1875 307.34 34.9917 305.924 35.5679C304.531 36.144 303.079 36.4321 301.567 36.4321ZM324.026 36.4321C322.274 36.4321 320.713 36.036 319.345 35.2438C318.001 34.4275 316.944 33.3112 316.176 31.8948C315.408 30.4784 315.024 28.8459 315.024 26.9974C315.024 25.1488 315.396 23.5164 316.14 22.1C316.908 20.6835 317.965 19.5792 319.309 18.787C320.677 17.9708 322.226 17.5626 323.954 17.5626C325.731 17.5626 327.291 17.9708 328.636 18.787C330.004 19.5792 331.06 20.6835 331.805 22.1C332.573 23.5164 332.957 25.1488 332.957 26.9974C332.957 28.8459 332.573 30.4784 331.805 31.8948C331.06 33.3112 330.016 34.4275 328.672 35.2438C327.327 36.036 325.779 36.4321 324.026 36.4321ZM324.026 33.7674C325.227 33.7674 326.271 33.4793 327.159 32.9031C328.048 32.3269 328.744 31.5347 329.248 30.5264C329.776 29.5181 330.04 28.3418 330.04 26.9974C330.04 25.653 329.776 24.4767 329.248 23.4684C328.744 22.4601 328.036 21.6678 327.123 21.0917C326.211 20.5155 325.155 20.2274 323.954 20.2274C322.778 20.2274 321.734 20.5155 320.822 21.0917C319.933 21.6678 319.225 22.4601 318.697 23.4684C318.193 24.4767 317.941 25.653 317.941 26.9974C317.941 28.3178 318.193 29.4941 318.697 30.5264C319.225 31.5347 319.945 32.3269 320.858 32.9031C321.794 33.4793 322.85 33.7674 324.026 33.7674ZM338.181 36.5041C337.629 36.5041 337.149 36.3121 336.741 35.928C336.357 35.5199 336.165 35.0517 336.165 34.5236C336.165 33.9714 336.357 33.5033 336.741 33.1192C337.149 32.711 337.629 32.507 338.181 32.507C338.734 32.507 339.202 32.711 339.586 33.1192C339.97 33.5033 340.162 33.9714 340.162 34.5236C340.162 35.0517 339.97 35.5199 339.586 35.928C339.202 36.3121 338.734 36.5041 338.181 36.5041Z" fill="#495057"/>
<path d="M104.052 56.0034V47.601H106.609C107.401 47.601 108.097 47.781 108.697 48.1411C109.305 48.4932 109.781 48.9854 110.126 49.6176C110.47 50.2497 110.642 50.978 110.642 51.8022C110.642 52.6184 110.47 53.3426 110.126 53.9748C109.781 54.607 109.305 55.1032 108.697 55.4633C108.097 55.8234 107.401 56.0034 106.609 56.0034H104.052ZM105.072 55.0671H106.609C107.033 55.0671 107.425 54.9871 107.785 54.8271C108.145 54.659 108.461 54.423 108.733 54.1189C109.013 53.8148 109.229 53.4667 109.381 53.0746C109.541 52.6745 109.621 52.2503 109.621 51.8022C109.621 51.3541 109.541 50.9339 109.381 50.5418C109.229 50.1417 109.013 49.7896 108.733 49.4855C108.461 49.1814 108.145 48.9494 107.785 48.7893C107.425 48.6213 107.033 48.5372 106.609 48.5372H105.072V55.0671ZM115.197 56.0034V47.601H120.166V48.5252H116.217V51.238H119.818V52.1503H116.217V55.0791H120.19V56.0034H115.197ZM127.87 56.1475C127.406 56.1475 126.994 56.0994 126.634 56.0034C126.274 55.8994 125.961 55.7593 125.697 55.5833C125.433 55.3992 125.217 55.1992 125.049 54.9831C124.881 54.7591 124.757 54.523 124.677 54.2749L125.649 53.9388C125.769 54.2909 126.009 54.599 126.37 54.8631C126.738 55.1192 127.186 55.2472 127.714 55.2472C128.362 55.2472 128.87 55.1192 129.238 54.8631C129.606 54.607 129.791 54.2669 129.791 53.8428C129.791 53.4507 129.626 53.1346 129.298 52.8945C128.97 52.6464 128.538 52.4544 128.002 52.3183L127.078 52.0783C126.702 51.9822 126.354 51.8422 126.033 51.6582C125.721 51.4661 125.469 51.226 125.277 50.9379C125.093 50.6419 125.001 50.2898 125.001 49.8816C125.001 49.1214 125.245 48.5292 125.733 48.1051C126.229 47.673 126.942 47.4569 127.87 47.4569C128.422 47.4569 128.898 47.549 129.298 47.733C129.698 47.9091 130.023 48.1371 130.271 48.4172C130.527 48.6893 130.707 48.9854 130.811 49.3055L129.851 49.6416C129.698 49.2415 129.442 48.9294 129.082 48.7053C128.722 48.4732 128.286 48.3572 127.774 48.3572C127.238 48.3572 126.81 48.4892 126.49 48.7533C126.177 49.0094 126.021 49.3615 126.021 49.8096C126.021 50.1937 126.145 50.4898 126.394 50.6979C126.642 50.8979 126.966 51.046 127.366 51.142L128.29 51.3701C129.106 51.5621 129.731 51.8822 130.163 52.3304C130.603 52.7705 130.823 53.2466 130.823 53.7588C130.823 54.1989 130.711 54.603 130.487 54.9711C130.263 55.3312 129.931 55.6193 129.49 55.8354C129.058 56.0434 128.518 56.1475 127.87 56.1475ZM135.435 56.0034V47.601H136.456V56.0034H135.435ZM145.38 56.1475C144.524 56.1475 143.767 55.9634 143.111 55.5953C142.455 55.2192 141.939 54.707 141.563 54.0589C141.195 53.4027 141.011 52.6544 141.011 51.8142C141.011 50.958 141.195 50.2057 141.563 49.5575C141.939 48.9014 142.455 48.3892 143.111 48.0211C143.767 47.645 144.524 47.4569 145.38 47.4569C145.828 47.4569 146.264 47.533 146.688 47.685C147.112 47.829 147.501 48.0291 147.853 48.2852C148.205 48.5412 148.489 48.8333 148.705 49.1614L147.901 49.7136C147.741 49.4575 147.525 49.2294 147.253 49.0294C146.98 48.8213 146.68 48.6613 146.352 48.5493C146.032 48.4372 145.708 48.3812 145.38 48.3812C144.732 48.3812 144.156 48.5292 143.651 48.8253C143.147 49.1134 142.751 49.5135 142.463 50.0257C142.175 50.5378 142.031 51.134 142.031 51.8142C142.031 52.4704 142.171 53.0586 142.451 53.5787C142.739 54.0909 143.135 54.495 143.639 54.7911C144.152 55.0872 144.732 55.2352 145.38 55.2352C145.924 55.2352 146.404 55.1232 146.82 54.8991C147.245 54.667 147.577 54.3509 147.817 53.9508C148.057 53.5427 148.177 53.0746 148.177 52.5464L149.149 52.4744C149.149 53.2106 148.989 53.8548 148.669 54.407C148.349 54.9511 147.905 55.3792 147.337 55.6913C146.768 55.9954 146.116 56.1475 145.38 56.1475ZM146.112 52.5944V51.7182H149.149V52.5104L148.669 52.5944H146.112ZM153.576 56.0034V47.601H154.608L159.613 54.3469V47.601H160.634V56.0034H159.613L154.596 49.2214V56.0034H153.576ZM177.445 56.0034V47.601H180.002C180.794 47.601 181.49 47.781 182.09 48.1411C182.699 48.4932 183.175 48.9854 183.519 49.6176C183.863 50.2497 184.035 50.978 184.035 51.8022C184.035 52.6184 183.863 53.3426 183.519 53.9748C183.175 54.607 182.699 55.1032 182.09 55.4633C181.49 55.8234 180.794 56.0034 180.002 56.0034H177.445ZM178.465 55.0671H180.002C180.426 55.0671 180.818 54.9871 181.178 54.8271C181.538 54.659 181.854 54.423 182.126 54.1189C182.407 53.8148 182.623 53.4667 182.775 53.0746C182.935 52.6745 183.015 52.2503 183.015 51.8022C183.015 51.3541 182.935 50.9339 182.775 50.5418C182.623 50.1417 182.407 49.7896 182.126 49.4855C181.854 49.1814 181.538 48.9494 181.178 48.7893C180.818 48.6213 180.426 48.5372 180.002 48.5372H178.465V55.0671ZM188.59 56.0034V47.601H193.56V48.5252H189.61V51.238H193.211V52.1503H189.61V55.0791H193.584V56.0034H188.59ZM201.155 56.0034L204.588 47.601H205.657L202.176 56.0034H201.155ZM201.047 56.0034L197.566 47.601H198.635L202.056 56.0034H201.047ZM209.778 56.0034V47.601H214.748V48.5252H210.798V51.238H214.399V52.1503H210.798V55.0791H214.772V56.0034H209.778ZM219.763 56.0034V47.601H220.783V55.0791H224.744V56.0034H219.763ZM232.246 56.1475C231.437 56.1475 230.721 55.9634 230.097 55.5953C229.473 55.2272 228.985 54.715 228.633 54.0589C228.28 53.4027 228.104 52.6504 228.104 51.8022C228.104 50.9459 228.276 50.1937 228.621 49.5455C228.973 48.8894 229.457 48.3772 230.073 48.0091C230.689 47.641 231.401 47.4569 232.21 47.4569C233.018 47.4569 233.73 47.645 234.346 48.0211C234.97 48.3892 235.455 48.9014 235.799 49.5575C236.143 50.2057 236.315 50.954 236.315 51.8022C236.315 52.6504 236.143 53.4027 235.799 54.0589C235.455 54.715 234.974 55.2272 234.358 55.5953C233.75 55.9634 233.046 56.1475 232.246 56.1475ZM232.246 55.2232C232.846 55.2232 233.374 55.0791 233.83 54.7911C234.286 54.495 234.642 54.0909 234.898 53.5787C235.162 53.0666 235.295 52.4744 235.295 51.8022C235.295 51.138 235.162 50.5498 234.898 50.0377C234.634 49.5175 234.27 49.1134 233.806 48.8253C233.35 48.5292 232.818 48.3812 232.21 48.3812C231.609 48.3812 231.077 48.5292 230.613 48.8253C230.149 49.1134 229.785 49.5175 229.521 50.0377C229.257 50.5498 229.125 51.138 229.125 51.8022C229.125 52.4744 229.257 53.0666 229.521 53.5787C229.785 54.0909 230.153 54.495 230.625 54.7911C231.097 55.0791 231.637 55.2232 232.246 55.2232ZM240.869 56.0034V47.601H243.605C244.15 47.601 244.63 47.713 245.046 47.9371C245.47 48.1611 245.798 48.4732 246.03 48.8733C246.27 49.2735 246.39 49.7376 246.39 50.2658C246.39 50.7779 246.282 51.234 246.066 51.6341C245.85 52.0343 245.554 52.3504 245.178 52.5824C244.802 52.8065 244.366 52.9185 243.869 52.9185H241.889V56.0034H240.869ZM241.889 51.9943H243.869C244.31 51.9943 244.67 51.8342 244.95 51.5141C245.238 51.186 245.382 50.7699 245.382 50.2658C245.382 49.7456 245.214 49.3255 244.878 49.0054C244.542 48.6853 244.113 48.5252 243.593 48.5252H241.889V51.9943ZM262.394 56.0034V47.601H264.95C265.743 47.601 266.439 47.781 267.039 48.1411C267.647 48.4932 268.123 48.9854 268.467 49.6176C268.812 50.2497 268.984 50.978 268.984 51.8022C268.984 52.6184 268.812 53.3426 268.467 53.9748C268.123 54.607 267.647 55.1032 267.039 55.4633C266.439 55.8234 265.743 56.0034 264.95 56.0034H262.394ZM263.414 55.0671H264.95C265.375 55.0671 265.767 54.9871 266.127 54.8271C266.487 54.659 266.803 54.423 267.075 54.1189C267.355 53.8148 267.571 53.4667 267.723 53.0746C267.883 52.6745 267.963 52.2503 267.963 51.8022C267.963 51.3541 267.883 50.9339 267.723 50.5418C267.571 50.1417 267.355 49.7896 267.075 49.4855C266.803 49.1814 266.487 48.9494 266.127 48.7893C265.767 48.6213 265.375 48.5372 264.95 48.5372H263.414V55.0671ZM277.116 56.1475C276.307 56.1475 275.591 55.9634 274.967 55.5953C274.343 55.2272 273.855 54.715 273.503 54.0589C273.151 53.4027 272.975 52.6504 272.975 51.8022C272.975 50.9459 273.147 50.1937 273.491 49.5455C273.843 48.8894 274.327 48.3772 274.943 48.0091C275.559 47.641 276.271 47.4569 277.08 47.4569C277.888 47.4569 278.6 47.645 279.216 48.0211C279.841 48.3892 280.325 48.9014 280.669 49.5575C281.013 50.2057 281.185 50.954 281.185 51.8022C281.185 52.6504 281.013 53.4027 280.669 54.0589C280.325 54.715 279.845 55.2272 279.228 55.5953C278.62 55.9634 277.916 56.1475 277.116 56.1475ZM277.116 55.2232C277.716 55.2232 278.244 55.0791 278.7 54.7911C279.156 54.495 279.512 54.0909 279.768 53.5787C280.033 53.0666 280.165 52.4744 280.165 51.8022C280.165 51.138 280.033 50.5498 279.768 50.0377C279.504 49.5175 279.14 49.1134 278.676 48.8253C278.22 48.5292 277.688 48.3812 277.08 48.3812C276.48 48.3812 275.947 48.5292 275.483 48.8253C275.019 49.1134 274.655 49.5175 274.391 50.0377C274.127 50.5498 273.995 51.138 273.995 51.8022C273.995 52.4744 274.127 53.0666 274.391 53.5787C274.655 54.0909 275.023 54.495 275.495 54.7911C275.967 55.0791 276.508 55.2232 277.116 55.2232ZM285.739 56.0034V47.601H286.795L289.7 51.8982L292.605 47.601H293.649V56.0034H292.641V49.2335L289.7 53.6147L286.759 49.2575V56.0034H285.739ZM298.771 56.0034V47.601H299.791V56.0034H298.771ZM304.91 56.0034V47.601H305.943L310.948 54.3469V47.601H311.969V56.0034H310.948L305.931 49.2214V56.0034H304.91ZM322.909 56.0034L319.536 47.601H320.556L323.977 56.0034H322.909ZM316.079 56.0034L319.5 47.601H320.532L317.159 56.0034H316.079ZM317.699 53.6147V52.7025H322.368V53.6147H317.699ZM329.631 56.0034V48.5252H326.955V47.601H333.316V48.5252H330.64V56.0034H329.631ZM337.443 56.0034V47.601H342.412V48.5252H338.463V51.238H342.064V52.1503H338.463V55.0791H342.436V56.0034H337.443Z" fill="#495057"/>
<path d="M12.2269 8.00061H30.7002L45.1962 26.0029L45.9762 25.0342L59.1206 8.00061H77.5939L88.9621 22.905L65.5152 52.004H48.463L44.9283 47.6866L41.3579 52.004H23.5951L0.148254 22.905L12.2269 8.00061Z" fill="#495057"/>
<path d="M71.9098 22.9052L56.9891 40.6485L54.1471 36.3901L68.3573 19.3566L71.9098 22.9052Z" fill="white"/>
<path d="M17.911 22.9052L21.4636 18.6468L36.2607 37.0999L32.8317 41.3583L17.911 22.9052Z" fill="white"/>
<ellipse cx="82.912" cy="46.6703" rx="4.0047" ry="4.00031" fill="#495057"/>
</svg>
